<svg xmlns="http://www.w3.org/2000/svg" viewBox="0 0 294.14 404.27"><defs><style>.cls-1{fill:#f2ede4;}.cls-2{fill:#463540;}.cls-3{fill:#e4e3e1;}.cls-4{fill:#472f34;}.cls-5{fill:#faf8f4;}.cls-6{fill:#b0c0c9;}.cls-7{fill:#4f393e;}.cls-8{fill:#533c40;}.cls-9{fill:#4c363f;}.cls-10{fill:#4d3a42;}.cls-11{fill:#594142;}.cls-12{fill:#4c3338;}.cls-13{fill:#462b2f;}.cls-14{fill:#422831;}.cls-15{fill:#574143;}.cls-16{fill:#553d3f;}.cls-17{fill:#544654;}.cls-18{fill:#543c3f;}.cls-19{fill:#5e484c;}.cls-20{fill:#513e48;}.cls-21{fill:#603f3f;}.cls-22{fill:#583d3f;}.cls-23{fill:#513b41;}.cls-24{fill:#5a3e41;}.cls-25{fill:#5c4348;}.cls-26{fill:#695558;}.cls-27{fill:#563d40;}.cls-28{fill:#362533;}.cls-29{fill:#4d3738;}.cls-30{fill:#4e3337;}.cls-31{fill:#301717;}.cls-32{fill:#371c22;}.cls-33{fill:#2b1114;}.cls-34{fill:#2e1a2b;}.cls-35{fill:#929ba8;}.cls-36{fill:#352433;}.cls-37{fill:#372433;}.cls-38{fill:#2a1929;}.cls-39{fill:#b2c5d1;}.cls-40{fill:#ff9e34;}.cls-41{fill:#433646;}.cls-42{fill:#f6f2e8;}.cls-43{fill:#e7b8b2;}.cls-44{fill:#310d1a;}.cls-45{fill:#320c1b;}.cls-46{fill:#dd9293;}.cls-47{fill:#d18f8f;}.cls-48{fill:#dc8d96;}.cls-49{fill:#d4b1ae;}.cls-50{fill:#eddfdf;}.cls-51{fill:#805c5d;}.cls-52{fill:#876162;}.cls-53{fill:#f3dedc;}.cls-54{fill:#4b1e27;}.cls-55{fill:#794651;}.cls-56{fill:#866e6d;}.cls-57{fill:#745a5d;}.cls-58{fill:#75474e;}.cls-59{fill:#6f4c4f;}.cls-60{fill:#704546;}.cls-61{fill:#d6afb7;}.cls-62{fill:#765b5c;}.cls-63{fill:#584040;}.cls-64{fill:#5b4347;}.cls-65{fill:#7f5d5c;}.cls-66{fill:#7b5c5d;}.cls-67{fill:#937573;}.cls-68{fill:#7f5a5f;}.cls-69{fill:#ac9891;}.cls-70{fill:#4e3039;}.cls-71{fill:#391b1f;}.cls-72{fill:#afc2cc;}.cls-73{fill:#37283a;}.cls-74{fill:#bdbdc2;}.cls-75{fill:#a6bcc9;}.cls-76{fill:#9db0c0;}.cls-77{fill:#788395;}.cls-78{fill:#747f92;}.cls-79{fill:#9fadba;}.cls-80{fill:#36293a;}.cls-81{fill:#352738;}.cls-82{fill:#747f90;}.cls-83{fill:#4f4655;}.cls-84{fill:#f2eee3;}.cls-85{fill:#a6bbc6;}.cls-86{fill:#9499a9;}.cls-87{fill:#717c8f;}.cls-88{fill:#a1b3bf;}.cls-89{fill:#453945;}.cls-90{fill:#99a2ac;}.cls-91{fill:#474552;}.cls-92{fill:#3b2a39;}.cls-93{fill:#8a9eae;}.cls-94{fill:#3b2e3f;}.cls-95{fill:#2d1b2a;}.cls-96{fill:#8f99a4;}.cls-97{fill:#86939d;}.cls-98{fill:#392838;}.cls-99{fill:#371e30;}.cls-100{fill:#f8f6f1;}.cls-101{fill:#b8c7cf;}.cls-102{fill:#eae6e0;}.cls-103{fill:#d8b0b8;}.cls-104{fill:#aa6f7c;}.cls-105{fill:#e8edec;}.cls-106{fill:#774c54;}.cls-107{fill:#653b45;}.cls-108{fill:#c38794;}.cls-109{fill:#dbc9d1;}.cls-110{fill:#e7bbb5;}.cls-111{fill:#cecac3;}.cls-112{fill:#a2abb5;}.cls-113{fill:#706d7a;}.cls-114{fill:#82808c;}.cls-115{fill:#d2cac5;}.cls-116{fill:#7a7785;}.cls-117{fill:#cfcdc7;}</style></defs><g id="Capa_2" data-name="Capa 2"><g id="Capa_1-2" data-name="Capa 1"><path class="cls-1" d="M28.77,248.24l-.17.14C37,245,45.39,241.5,53.67,237.67c5,1.52,3.4,6.44,3.87,10.31a12.72,12.72,0,0,1-.53,2.68c-2.27,3.7-2.45,8.48-4.56,12.27-5.43,9.78-10.2,20.23-20.17,25.18-2.85,1.42-3.24,7.71-5.34,7.86-7.57.54-9.08,7.72-13,12.77s-6.12-2-8.92-4.14c-2.8-.13-4.45-1.22-4.31-5.09.1-3,.92-6.26-.74-9.14v-3.83c.72-4.67,3.35-6.44,7.14-6.51C11.35,266.62,19.4,256.82,28.77,248.24Z"/><path class="cls-2" d="M20,371.42c-8.64-8-14.14-18.89-20-29.43v-9.56c2.54-.95,3.48,1.38,4.71,3.1C10.28,348.14,16.6,360,26.82,368.4A7.91,7.91,0,0,1,30,373.64c-.39,2.5-2.22,2-3.63,2.35a3.59,3.59,0,0,0-.39.92C22.63,377.06,21.24,374.37,20,371.42Z"/><path class="cls-3" d="M3,336.58c-1.67-.72-.56-4.15-3-4.15V290.37c3,3,.85,7.27,2,11,1.65.88,2.14-5.32,4.51-1.39.09,9.37-.59,18.74.22,28.13C7.05,331.5,7.79,335.94,3,336.58Z"/><path class="cls-4" d="M8.31,283c-1.4,5.27-2.27,5.47-2.54,3.92-1.66-9.77-3.92.38-5.77-.36v-7.65l3.21-4C7.5,275.37,9.67,277.66,8.31,283Z"/><path class="cls-5" d="M254.08,97.4,259,103c2.47,3.17,5.68,5.78,2.88,11.18-2.06,4,2.79,7.26,1.85,11.46-2.15,4.54,2,9.91-1.38,14.3-6.9-.93-14-1.22-16.86-10.92-.39-1.38-2-2-3.27-2.67-5.54-6.72-12.09-10-20.22-8.43-4.28.83-7.31-1.15-8.59-6.2.15-7-.06-13.62-7.69-15.8-7.85-2.25-14.94-2.14-20.46,5.92-2.81,4.72-3.35,9.46-.08,14.22a21.37,21.37,0,0,1,3.63,5.06c1,2.93,4.2,4.65,3.3,8.55-8,7.85-14.27,6.62-19.6-3.83-2.16-2.93-4.75-4.8-8.21-4.58-1.72.33-3.43.58-5.15.83-5.26-.74-5.83,4.84-8.07,8.18-3.93,3.37-8.59,4-13.19,4.52s-8.11-1.34-8.54-7.56a11.72,11.72,0,0,1,4.28-8.45c3.56-3.18,4-6.94,2.12-11.38-5.4-12.31-15.27-16.19-25.88-10.11a47.43,47.43,0,0,0-8.67,7c1.08,12.41,1.11,12.54-11.36,15.63-3.56.89-5.54,3-7,6.76-1.36,3.5-1.51,8.33-5.86,9.44-9.28,1.45-18.19.87-25.95-6.26a11,11,0,0,1-.32-4.63c1-5.44,4.55-9,7-13.39A9.8,9.8,0,0,1,61,109.1c-2.58.33-5.25,1.5-6.42-2.42-.4-6.21,6.61-7.86,6.32-14,1.31-3.68-.32-8.64,3.57-11.2,7.31,4.72,10.63-3.14,15.32-6.65,2.9-1.34,5-3.44,5.11-7.4,1.88-4.64,4.78-7.49,9.59-7.18-1.89-2.09-4.38-2.73-6.11-4.7s-3.88-4-3.26-7.07c.68-3.42,3.48-3.34,5.88-3.61s4.74.69,7.25,1.16c.18-3.78-1.88-6-3.23-8.59-4.58-7.29-11.2-11.66-17.39-16.63-2.74-2.17-5.61-3.72-9-2.59-2.4.87-2.94,4.45-5.48,5.13A3,3,0,0,1,61.16,22c-1.4-2.64-1.22-5.54-1.09-8.44.53-5.28,3.44-8.67,6.8-11.71l1.78-.23c7,3.64,14.22,6.81,20.76,11.58,1.64.9,3.17,2.25,5.16,1.76,7.49,5.88,15.9,9.61,24,14,4.12,2.21,8-1.73,12.12-.52,6.34-.4,12.63-1.5,19-1.91,6.66,0,13.31-.1,20,.08,5.29,1.51,10.87.24,16.11,2.2,4.42.23,8.82,2.52,13.29.32,6.12-2.83,11.34-7.56,17.08-11.2a143.86,143.86,0,0,0,13.2-8.59,33.48,33.48,0,0,1,6.35-4.06c8.6-4.91,10.18-4.2,14.53,6.54.88,4,1.64,8.06,2.15,12.17.11,7.64,0,15.27,0,22.9-1.52,12.12-1.75,24.38-3.15,36.52C248.62,88.89,249.57,94.09,254.08,97.4Z"/><path class="cls-6" d="M67,180.62c-1.25-.72-2.67-1.2-3.11-3.05-1.27-4.7-.25-10.6-5.14-13.41A4.85,4.85,0,0,1,55.66,160c-2.29-4.88.05-6.78,3.7-7.84a10.13,10.13,0,0,1,2.58,0c5.28,1.24,9.19,4.85,12.76,9.46,4.09,5.3,6.89,12.34,13.48,14.52.5.17.83.91,1.3,1.11,4.23,1.79-2.08,6.36,1.38,7.78,3.22,1.32,7.11.51,9.52,4.33-1.24,5.11-4.88,5.1-8.4,5.38-5-1.43-10.06-2.4-14.9-4.43C74.49,186.06,70.49,183.72,67,180.62Z"/><path class="cls-7" d="M66.87,1.83c.16,4.66-5.54,5.89-4.72,11-1.72,15.91-.22,31.9-.72,47.84-.66,4.2,1.56,9.71-3.91,11.72-2.52-19.24-4-38.53-.1-57.72C58.59,8.84,59.61,1.92,66.87,1.83Z"/><path class="cls-8" d="M254.08,97.4c-8.82-.65-6.79-8.84-6.52-14.43.56-11.87,2.23-23.66,3.45-35.48a106,106,0,0,0,0-24.79c-.47-3.72-2.6-7-2-11-.73-2.19-1.21-4.24,1.79-4.32,3.76,14.8,4.16,29.46,2.78,45.07C252.25,67.11,247.33,82.61,254.08,97.4Z"/><path class="cls-9" d="M60.44,154.51c-2.78.44-5.38,1.1-4.78,5.53-.54-.06-1.43.11-1.57-.2-3.38-7.33-6.78-14.66-9.88-22.16-.35-.86,1.07-2.72,1.66-4.11a3.21,3.21,0,0,1,3.28-.29c2.12.59,4.27.26,6.41.32,6.58.18,6.8,3.41,3.07,8.58-2.06,1.82-2.93,3.53-.24,5.8C60.18,149.5,62.92,151,60.44,154.51Z"/><path class="cls-10" d="M56,247.93c-2.9-2.54,2.15-7.31-2-9.51-1-.39-2.08-.5-2.23-2.07,5.84-1.62,7.71-5.87,7.94-12.85.18-5.69-.78-12.07,2.76-17.19,3.27.05,3.23,3.17,3.87,5.66,1.52,11,.4,21.6-4.11,31.52C61,246.24,60.19,250.53,56,247.93Z"/><path class="cls-11" d="M8.31,283c.07-4.21-3.3-5.48-5.1-8.1,5.36-2,7.06-8,10.36-12.37,4.32-5.69,7.27-13.71,15.2-14.27-.15,3.78-2.92,5.16-4.95,7.12C16.21,262.73,11.81,272.51,8.31,283Z"/><path class="cls-12" d="M262.43,125.92c-.4-5.27-4.77-8-6.29-13.16l6.19-.32C262,108.66,258.2,107,259,103c6.6,2,8.18,9.21,11,14.87,2.34,4.72-6.25.07-4.18,5.58.59,1.46,1,3.18-.33,4.12S263,127.57,262.43,125.92Z"/><path class="cls-13" d="M51.8,236.35,54,238.42c-6.94,3.09-12.39,9.8-20.39,10.68-2,.22-3.33-1.23-5-.72,1.08-6.47,6.32-7.2,10-7.75C43.34,239.94,47.34,237.38,51.8,236.35Z"/><path class="cls-14" d="M59.16,112.5c-.52,5.11-4.3,7.79-6.41,11.71-2.77.69-6,3.07-7.09-2.54-.15-5.9,3.28-10,5.51-14.65,1.24-.51,2.07.23,2.8,1.27C54.94,111,58.06,110,59.16,112.5Z"/><path class="cls-15" d="M250.76,7.38c-1.35,1-1.6,2.65-1.79,4.32-2.68-8.36-7.17-9-13.11-4.38a47,47,0,0,1-6.43,3.6c-.89-.42-2-.54-2.19-2,3.24-2.29,6.37-4.81,9.73-6.82C243-1.5,248-.91,250.76,7.38Z"/><path class="cls-16" d="M118.05,30.22c-7.1-3.65-14.19-7.33-21.32-10.9-1.77-.89-2.41-2.27-2.16-4.38,9.35,2.09,17,8.64,25.41,13.16C119.84,29.44,118.81,29.67,118.05,30.22Z"/><path class="cls-17" d="M58.79,164.16c6.58,1.93,10.75,5.12,5.14,13.41C54.35,177.2,60.61,168.57,58.79,164.16Z"/><path class="cls-18" d="M89.41,13.18A38.37,38.37,0,0,1,68.65,1.6,25.53,25.53,0,0,1,89.41,13.18Z"/><path class="cls-19" d="M262.43,125.92c2.56,1.84,3.18.11,3.35-2.47,4.69,4.25,4.92,8.3-.4,12.1-.78,1.15-.09,2.89-1.14,3.94a1.26,1.26,0,0,1-1.65-.31C263.72,134.74,256.46,130.44,262.43,125.92Z"/><path class="cls-20" d="M64.2,212.59c-.32-2.19-.08-4.58-1.7-6.28A45,45,0,0,1,70.38,187a3.78,3.78,0,0,1,2.75,2.75C71.5,198,70.25,206.59,64.2,212.59Z"/><path class="cls-21" d="M258.81,166.87l-1.31,2.89c-1.86,1.17-3,0-3.95-1.7,1.3-7.69,6.08-13.18,9.22-19.72,1.89-.5,2.92.89,3.9,2.39C268.46,159,261.21,161.34,258.81,166.87Z"/><path class="cls-22" d="M149.16,28.12l-19.79,1.94c-2.54-2.18-6.08,1.61-8.4-1.91,9.23-3.3,18.92-1.16,28.25-3.31a2.54,2.54,0,0,1,.86,1.67A2.34,2.34,0,0,1,149.16,28.12Z"/><path class="cls-23" d="M57.52,72.34c2.65-3.68.87-8.28,1.88-12.3,4.34,2.07,3.43,6.65,3.61,10.6a75.18,75.18,0,0,1-1.37,17.91c-.57,1.22-1.4,1.56-2.5,1C55.57,84.21,57.73,78.13,57.52,72.34Z"/><path class="cls-24" d="M216.93,19.18c-5.38,4.29-10.88,8.3-17,11.08-.74-.59-1.78-.81-1.95-2.12l16.74-11C215.59,17.62,216.71,17.77,216.93,19.18Z"/><path class="cls-25" d="M45.66,121.67l7.09,2.54-.48,3.13c-1.35,2.95.35,8.08-4.49,8.55l-1.91-2.32C49.36,129.51,43.69,125.69,45.66,121.67Z"/><path class="cls-26" d="M59.14,89.56c.46,0,.92,0,1.39,0,1.73.32,2.29,1.91,2.81,3.54-.61,6.08-6.78,7.64-7.94,13.27-.22,1.91-1,3-2.8,2.58L51.17,107C52.75,100.54,60.63,98,59.14,89.56Z"/><path class="cls-27" d="M216.93,19.18l-2.19-2.08,12.5-8.18,2.19,2A47,47,0,0,1,216.93,19.18Z"/><path class="cls-28" d="M72.54,189.33,70.38,187c.12-3-3.95-3-3.34-6.33,3.95,1.68,10.54-1.22,10.15,8a2,2,0,0,1,.5,1.51c-.06.56-.14.83-.25.84C75.3,192.5,73.9,191,72.54,189.33Z"/><path class="cls-29" d="M266.67,150.73a3.79,3.79,0,0,1-3.12-2.54c-2-2.81-2-5.59.08-8.35l1.75-4.29C267.71,140.39,267.57,145.52,266.67,150.73Z"/><path class="cls-30" d="M186.89,30l-16.41-1.95a2.26,2.26,0,0,1-.93-1.6,2.44,2.44,0,0,1,.87-1.66C175.47,29.14,182,22.75,187,28,187.87,28.72,187.84,29.4,186.89,30Z"/><path class="cls-31" d="M170.42,24.83q0,.72,0,1.44a41.18,41.18,0,0,1-21.2,0q0-.73,0-1.47A88.44,88.44,0,0,1,170.42,24.83Z"/><path class="cls-32" d="M186.89,30l.07-2,11,.14L200,30.26C195.54,34.86,191.25,29.27,186.89,30Z"/><path class="cls-33" d="M121,28.15c2.68,1.36,5.93-.69,8.4,1.91-3.77.57-7.5,4.18-11.32.16L120,28.1A.87.87,0,0,1,121,28.15Z"/><path class="cls-34" d="M26.35,376l3.09-1.49c7.72-1.71,13,5.69,19.93,7.11,4,.64,8.32,5.37,11.67-1.39a6.59,6.59,0,0,1,1.83-3.2c2.45-1.69,3.53-4.64,4.94-7.31,6.84-12.9,17-17.63,29.59-16.08,2.12.26,4.21,1.36,6.26-.28a5.4,5.4,0,0,1,3.25-1c4.51,1.67,5.85,6.55,8,10.66.75,2.43,2.84,3.75,3.74,6.07a4.08,4.08,0,0,1-.33,2.75c-6.86,8.48-6.06,16.81.21,25.11.43,3.48-2.27,3-3.75,4l-.68.26-.7-.14c-.47-.66-.94-1.32-1.4-2A37.84,37.84,0,0,0,95,396.58c-10.69.66-21.2-1.59-31.81-2a7.68,7.68,0,0,1-5.8-3C46.59,387.64,35.22,385.21,26.35,376Z"/><path class="cls-35" d="M213.14,401.19l-11,.55c-7.84-3.08-16.28-.78-24.15-3.68a11.72,11.72,0,0,1-2.82-5.13c-1.22-9.81-.72-19.27,4.36-27.74,4.8-1.28,4.51,3.28,5.45,6.43a57.55,57.55,0,0,1-.25,6.56c-.31,9.77.07,10.1,7.58,6.59,1-.46,2.24-1.55,2.92-.35,5.06,8.87,13.22,4.95,20,6.78a7.65,7.65,0,0,1,2.24,1.06,4.06,4.06,0,0,1,1.26,2.26C218.6,398.74,215,399,213.14,401.19Z"/><path class="cls-36" d="M180.86,365c-2.09,9.38-4.7,18.67-3.46,28.6-6.54,5.34-15.12,2.8-21.79,7.67l-10.58.28c-1.63.45-3.36,1.37-4.43-1.14.27-3,2.34-3.84,4.33-4.75a12.11,12.11,0,0,1,3.57-.53c9.62.62,11.18-7.62,12.75-15.83.8-1.11,1.74-1.72,3-1.09a11.54,11.54,0,0,1,2,4c.52,1.39.87,3.22,2.6,3s2-2,2.19-3.47a113.24,113.24,0,0,1,4.55-18c1.1-1.67,2.36-3.38,4.32-2.52C181.23,361.77,181.3,363.46,180.86,365Z"/><path d="M213.14,401.19c.18-3.53,2.41-4.58,4.8-5.43,3-1.2,6.41-1.72,8.21-5.45a29.14,29.14,0,0,0,1.66-3.36c2.28-3.21-1-10.18,5.26-10.71,2.24,2.25,2,6.08,4,8.44,7,4.06,13.91,2.85,20.95.31,3.84-1.38,8.2-4.49,10.56,2.65-7.07,7.17-15.6,4-23.58,4.37-6.54.31-13,.41-17.28,7.49C223.05,402,218.12,401.81,213.14,401.19Z"/><path class="cls-37" d="M141,399.78l4.07,1.75c-6.51,5.29-13.09,1.51-19.7.33-3.48-.62-7-.6-10.59-.87l3.26-3.25c2-3.39,5-3.26,8.09-3.08C131.22,395.66,136.92,394.45,141,399.78Z"/><path class="cls-38" d="M183.78,401.05c-1.25-2.11-4.21-1.14-5.11-3.88,7.72,2.23,16.5-2.95,23.46,4.57C196,403.41,189.89,401.78,183.78,401.05Z"/><path class="cls-39" d="M72.54,189.33l4.5,1.55c6.81-1.17,11.17,4.13,14.57,9.25a13.86,13.86,0,0,0,8.32,6.27c13.63,1.34,27.11,5.06,40.9,2.81a113.65,113.65,0,0,0,38.46,0c18.14-.09,36.69,1.82,51.49-14.45,1.61-1.42,3-3.15,4.87-4.17,3.47-1.24,6.68-5,10.65-1.57a5.55,5.55,0,0,1,.14,3c-5.37,12.73-14.85,20.35-25.35,25.9-31.59,16.68-64.63,24.66-99.44,20.53a24.47,24.47,0,0,0-7.35,0c-5.86,1.08-8,6.29-4.06,11.4s4.64,10.48,2.5,16.62a3.38,3.38,0,0,1-1.86,1.59c-4.78-2-9.93-3.68-9.31-11.63-.86.24-.91,1.48-1.68,1.87-5.85-2.11-4.77-8.26-5.73-13.24-.39-2,.14-4.84-2.52-5.2-1.75-.24-3.2,1-4,2.67-1.73,3.5,1.21,3.45,2.67,4.32a5.93,5.93,0,0,1,2.94,5.3c.12,8.42,3.6,15,7.83,21.44,5.17,7.87,5,16.34.69,24.78-4.79-3.74-9.14-7.91-10.66-14.85-.21-1.89,4.63-1.46,1.61-4.56-3.44-3.51-3.33-11.32-10.67-10.46-2.84.33-3.44-5-3.62-10.37-.08,7.9,3.14,11.88,6.3,15.95,1.89,2.42,5,4.16,3.92,8.51-4.65,3.59-8.31.33-11.77-2.62s-6.69-5-11-5.47c-9.94-1.16-10.71-2.42-10.87-14.26,0-2.53-.06-5.07,0-7.6a5,5,0,0,1,.86-2.92,2.25,2.25,0,0,1,.21-1.78c5.65-5.94,7.73-14.14,8.2-22.26a96.73,96.73,0,0,0,0-13.08C66.59,204.65,68.67,196.55,72.54,189.33Z"/><path class="cls-40" d="M49.09,384.15c-7.15-1.55-13.28-5.94-19.65-9.65C18,364.37,8.19,352.65,3,336.58c2.6-2.51,1.29-5.51,1-8.59-.72-9.5-2.56-19.22,2.52-28,1.61,2.83,2,6.58,5.09,8.92,3.24-2.91,3.36-7.73,4.92-11.53,2.36-5.76,4.36-8.85,7.09,0,7.1-14.59,21.41-20.59,27.2-35.54,4.11,6.2,2.58,12.67.71,19.16-7.28,12.92-12.28,26.26-5.72,41.8.47,1.11.32-.32.21.89a117.42,117.42,0,0,0,8.16,55.46C56.17,384,53.58,386.26,49.09,384.15Z"/><path class="cls-41" d="M49.17,280.81c2.1-6.15,1.23-12.66,1.67-19,2.33-3.65.73-9.48,4.94-12.09l.87,2.77c-.61,15,1.69,30.39-5.23,44.4-1.4,2.83.25,5.39,1.43,7.92,1.79,3.82,2.77,7.69-1,10.88-6.19-1.86-7.92-8-9.86-13.95C42.49,293.87,47.4,288.08,49.17,280.81Z"/><path class="cls-42" d="M263.63,139.84c0,2.78-.05,5.57-.08,8.35-.32,8.55-5.26,13.93-9.85,19.55-.23,3.07-1.56,5.65-2.76,8.3-3,3.1-6.53,2.39-10,1.59a38.57,38.57,0,0,1-7-2.42c-12-5.31-22.08-.24-18.36,18.21.2,1.86.72,3.71.18,5.6-2.56,5.45-7.07,4.86-10.76,3.42-12-4.68-24.27,1.47-36.19-2.1-.6-.18-1.34,1-1.94,1.62-5.93,4.16-11.94-.92-16.58-2.5-8.71-3-16.39-.31-24.51,0-2.72-.26-5.5-.42-7-3.83-.22-.74-.39-1.52-.56-2.27-4.51-3.65-9.55-.67-14.26-1.6a5.57,5.57,0,0,1-4.19-2.42c-4-2.06-12.6,3.08-10.46-8.92a1.81,1.81,0,0,0-.91-1.41c-10.34-1.46-12.83-12.84-18.77-19.89-1.82-2.17-4.64-3.21-7-4.76-2.63-4.18-.13-5.43,2.7-6.48,8.4.31,16.66-1.23,24.07-2.53-7.22,1-15.23,3-23.47,2.39-3.39-1.59-8.53-.1-8.89-6.94l3.28-4.32c-4.28-4-8.67,2.89-12.6-.64l4.49-8.55c3.1,7.67,9.72,4.21,14.63,6,3.66,1.3,7.91.31,11.9.34,12,1.91,22.42-2.64,32-10.72,4.1-.78,8,3.14,12.21.62a13.55,13.55,0,0,1,5.94.22,5.64,5.64,0,0,1,2,1.56c.11,5.51,2.14,8.31,7.09,6.51,4.25-1.54,9-.94,12.86-4.15,1.56-1,3.14-.74,4.73-.06,2.41,1.25,3.66,3.57,4.32,6.43,4.42,12.8.64,19.88-13.57,25.69a19.38,19.38,0,0,0,10.82-6.92c3.57-4.32,7.11-4.23,10.59-.25a19.92,19.92,0,0,0,9.43,6.22c.33.13.34-.08.27-.11-9.15-4.4-17.91-9.11-13.91-23.93a19.83,19.83,0,0,1,3.92-6.36c2.5-1.56,4.22-4.19,6.32-6.3,4.15,11.29,8,12.6,18,6.1,4-5.48,10.15-1.82,14.74-4.75,4-.56,7.61.88,10.71,3.64,5.37,4.8,11.76,4.38,17.92,5.24,5.41.75,6.05-5.52,9.06-8.29.48.32,1.24.51,1.38,1,2.87,9.34,10.89,10.22,17,14.18A1.83,1.83,0,0,1,263.63,139.84Z"/><path class="cls-40" d="M160.78,28.24c1.19-.18,34.16,1.94,35.24,2.56C201.76,34.13,241.75,2,246.67,5.18s11.69,74.41-6.61,102.51c-12,18.38-49.84-2.8-52.85,0-.31.28-12.54-17.89-26.43-17.94-14.94-.06-31.64,17.9-33,15.38-3.61-6.56-46.51,13.65-63.87-12.82-11.56-17.63-2-85.89,2.2-87.13,2.17-.65,15.42,5.12,37.44,17.94C122.28,34,156.43,28.9,160.78,28.24Z"/><path class="cls-43" d="M63.83,22.6c.6-2.85-1.15-7.28,3.62-7.34,3.67.86,7.34,1.69,10.46,4.34,7,5.19,13.43,11,18.51,18.75,1,3.53,3.69,7.83-2.65,8.07a16.5,16.5,0,0,0-9.59-.24c-2.64.65-7.6-.14-2.26,5.29,3.41,3.46,3.54,7.34-.34,10.2-5,3.65-5.93,15-15,10.7.35,3.21,1.19,6.89-3.63,5a8.87,8.87,0,0,1-.62-3c0-13.67-1.76-27.27-.85-41C61.74,29.6,61.25,25.67,63.83,22.6Z"/><path class="cls-44" d="M99.88,103c12-17.41,31.07-15.67,38.08,3.46a18.6,18.6,0,0,1,.3,8.34c-1.56,4.77-6.45-7-6.27,2.89-2.63,7-8.29,6-13.26,6.89-4.43-.39-7.45-3.83-10.71-6.74-2.37-2.3-1.53-6.82-4.44-8.75C101.84,107.51,100.14,105.86,99.88,103Z"/><path class="cls-45" d="M183.28,100.39c8.71-12.22,26.07-12.13,33.36.25,2.19,3.72-3.51,6.16-1.47,10a13,13,0,0,1,.15,5.37c-4.57-4.09-3.6,2.62-5.46,3.84-4,3.38-8.32,5.35-13.32,4.92-4.49.09-7.43-2.65-9.49-7A132.92,132.92,0,0,0,183.28,100.39Z"/><path class="cls-40" d="M99.88,103l4.6,4.12c2.34,4.07-.31,10.89,5.34,13.13,1.13,1.31,2.26,2.61,1.78,4.73-7,7.81-15.31,11.74-24.92,12-2.93.07-37,4.52-38.22-1.1-1.12-10.22,3.28-24.32,4.41-28.19,1.24-4.26,10.3-13.92,11-15.38C65,90,97.92,102.69,99.88,103Z"/><path class="cls-40" d="M214.39,116.12l.78-5.46c1.9,1.12,30.77-21.76,33.7-18.35,6.61,7.69,17.62,20.51,15.42,30.76-1.47,11.9-23,12.33-33.55,12.43-9.23.1-14.46-8.8-22.66-9.65-.84-2.44.8-3.61,1.89-5.07C211.48,119.28,212.4,117,214.39,116.12Z"/><path class="cls-46" d="M64.29,78.35c2.12-2.63.84-6,1.58-9.13,2.36.46,5.53,7.13,6.84-.87.36-2.26,1.71-2.58,2.72-3.8,3.35-4.09,11.49-8,1.59-14.38-1.28-.83-3.16-2.86-2.21-4.49,2.19-3.77,5.86-1.42,8.89-1.89a13.75,13.75,0,0,0,5.39,10.89c5,3.76,4.86,6.14-1,7.94-1.35.41-1.91,2.15-2.84,3.26-2.81,2.82-2.76,7.43-4.89,10.68-2.15,2.72-4.24,5.49-6.44,8.13-4.18,5-6.85,3.38-8.4-2.74C64.36,81.12,63,80.35,64.29,78.35Z"/><path class="cls-47" d="M244.28,62.83c0,4.12.05,8.25-.12,12.36-.11,2.76.17,6.18-2.68,7.28-3.14,1.22-3.57-3.18-5.58-4.46-2.67-4.24-.21-10.86-4.83-14.2-1.18-2.77-5.9-.69-5.55-5.26.22-3,2.77-3.34,4.67-4.27,4.76.88,9.84.88,12.95,6.35A6.77,6.77,0,0,1,244.28,62.83Z"/><path class="cls-48" d="M168.69,129.92c-1.51,1.55-.5,4.92-3,5.74a6.52,6.52,0,0,1-8.17.17c-.58-2.42.06-5.78-3.41-6-4.47-7.5-.08-8.7,4.94-9.45,1.43-1.15,2.72-2.76,4.75-2a19.7,19.7,0,0,0,4.37,2.15C174.33,123.18,173.1,126.43,168.69,129.92Z"/><path class="cls-49" d="M244.28,62.83h-1.69c-4.57-9.52-2.11-19.91-2.76-29.91-.25-4,.85-8.54-3.38-10.84a4.66,4.66,0,0,1-2.07-3.29c2.15-3.4,4.77-6.82,8.61-5.15s3,6.32,2.86,10C245.29,36.68,247.57,49.91,244.28,62.83Z"/><path class="cls-50" d="M64.29,78.35,65.55,82c-3,3.1-.45,7.71-2.21,11.16l-2.81-3.54c.69-9.9.92-19.77-1.13-29.53.29-15.81-2.71-31.87,2.75-47.26,0,3.32.07,6.65.11,10,.07,14.76-.3,29.53.85,44.25.24,3.09-.8,6.34.85,9.25Z"/><path class="cls-51" d="M83.53,64.54c1.17-4,5.13-2.91,7.21-5.15-1.27-6-11.56-6.22-7-15.6,3.46-.08,7-.78,10.23,1.42-.18,1.39-1.32,1.42-2.08,2l-6.22.58c3.9,8,11.47,9.11,18.23,14.63-7.57.8-14.49-1.2-18.53,6.33C83.77,67.91,82.55,66.86,83.53,64.54Z"/><path class="cls-52" d="M231,55c-1.27,1.16-3.65,2.37-3.61,3.46.14,3.84,4.31,1.44,5.58,4.06,0,2.2,0,4.41-1.78,5.85-3.35-8-10.21-4.61-17.67-5.81,7.89-4.42,14-7.5,18.2-14-2.46-2.76-5-.62-7.22-1.35-2.11-1.35-7,.77-5.14-5.55a4.35,4.35,0,0,1,2.39-1.19c2.67.28,5.35-.2,8,.38,3,.64,6.16,1.44,6.7,5.49C237,50.92,235.15,54.13,231,55Z"/><path class="cls-53" d="M64,76.25c-3-17.73-5.12-35.5-1.7-53.5l1.57-.14Q63.91,49.43,64,76.25Z"/><path class="cls-54" d="M183.28,100.39c8,2.44,4.49,10.08,5.27,15.79-1,2.47-3.44.91-4.85,2.27C176.61,112.65,179.54,106.53,183.28,100.39Z"/><path class="cls-55" d="M131,116.13A4.66,4.66,0,0,0,129.5,112c-3-2.6-1-4,1-5.37,2.11-1.52,3.48-1,4.17,1.86.49,2,1.06,4,2.33,8.71.51-5.53.74-8.14,1-10.75,5.17,10.11-2.76,13.54-7,18.83-.42.05-.84.09-1.26.1C126.64,121.66,132.29,119.56,131,116.13Z"/><path class="cls-56" d="M94.63,38.53C89.2,32.05,83.87,25.45,77.17,20.66c-.45-1.74-.17-2.64,1.57-1.89C85.37,23.64,92.34,28,96.82,36,96.6,37.43,95.92,38.34,94.63,38.53Z"/><path class="cls-57" d="M94.63,38.53,96.82,36c3.42,3.83,4.34,9.16,6.88,15.05L91.85,47.21l2.07-2C98.93,43.67,94.55,40.78,94.63,38.53Z"/><path class="cls-58" d="M211.4,122.08l-3.32,3.77c-5.2,3.05-10.77,2.61-16.32,2.34-1.27-2.14-5.4-1.14-4.52-5.63,4.19-3.17,7.5,3.51,11.59,1.41,3.86-.2,7-2.81,10.38-4.44A2.69,2.69,0,0,1,211.4,122.08Z"/><path class="cls-59" d="M83.53,64.54l1.8,4.21c4,7.47-1,7.14-4.94,7.81C77.55,71.17,81.3,68.13,83.53,64.54Z"/><path class="cls-60" d="M231.15,68.34c-.1-2.23,0-4.38,1.78-5.85,5.24,4.06,4.06,9.8,3,15.52C231.85,76.44,230.48,73.08,231.15,68.34Z"/><path class="cls-61" d="M199.72,125.53c-4.67,1.89-8.3-2.11-12.48-3-.39-2.29-2.33-2.78-3.54-4.11.68-3.48,3.11-1.87,4.85-2.27,1.36,4.5,4.6,5.61,8.16,6.14C197.37,123.82,200.72,121.9,199.72,125.53Z"/><path class="cls-62" d="M168.69,129.92c6.45-8.55-4-7.23-4.93-11.5,3.9-.84,6.92,1.58,10,3.67C173.71,126.13,174,130.51,168.69,129.92Z"/><path class="cls-63" d="M149.22,26.31l21.2,0c0,.6.05,1.21.06,1.82l-21.32,0C149.16,27.51,149.18,26.91,149.22,26.31Z"/><path class="cls-64" d="M251,22.7a45.21,45.21,0,0,1,0,24.79Q251,35.08,251,22.7Z"/><path class="cls-65" d="M221.41,41.8h-1.76c-.48,1-1,1-1.42,0,1.76-4.67,2.8-10,8-11.4.23.36.47.71.71,1.06C227.54,36.68,225.76,40.17,221.41,41.8Z"/><path class="cls-66" d="M218.23,41.8h1.42c-.15,3.93,3.35,3.43,4.81,5.41l-10,4.71Z"/><path class="cls-67" d="M234.38,18.79l1.53,1.94c-1.73,5.33-2.87,11.48-9.79,9.59l.14.09C226.61,24.29,231.11,22.13,234.38,18.79Z"/><path class="cls-68" d="M159,120.43c-3.53,1.81-6.91,3.73-4.94,9.45l-3.2-2.2C150.3,120.24,153.14,118,159,120.43Z"/><path class="cls-69" d="M78.74,18.77l-1.57,1.89-9.72-5.4C71.6,14.73,75.7,14.43,78.74,18.77Z"/><path d="M259,217.7c1.83,9.4,3.43,18.76-3.46,26.63-2.11.8-3.4-.48-4.46-2.38-1-8.3-4.24-16.73.92-24.73C254.36,215.67,256.68,216.09,259,217.7Z"/><path d="M281.89,378.56c0,.64-.08,1.29-.13,1.94l-3.05,1.74c-1.56.77-3.13,0-4.69,0-1.55-.5-3.11-1-4.63-1.59-2.07-.84-4.11-2.15-4-5.15.12-2.61,2.23-3.36,3.95-4.1,2.31-1,4.48-2.12,5.86-4.65a94.49,94.49,0,0,0,5.77-8.71c1.54-2.61,3.31-4.93,6.48-3.13a6.59,6.59,0,0,1,1.25,6.85c-2.05,4.38-6.34,5.75-9.1,9.5C275.68,376.64,278.59,377.25,281.89,378.56Z"/><path d="M288.72,361.8l-1.82-5.86c-.23-14.85.33-29.67,1-44.49a1.59,1.59,0,0,1,2.46-.05C296.07,328.48,295.16,345.26,288.72,361.8Z"/><path d="M290.36,311.4l-2.42.19c-8.06-7.55-17.92-12.45-24.42-22.35a2.91,2.91,0,0,1,.36-2.49c2.4-.92,5.36-1.59,7,.46C277.35,295.3,287.53,299.36,290.36,311.4Z"/><path d="M259,217.7c-1.63,1.16-3.25,1.48-4.83-.12-3.58-8.56-7-17.18-8.37-26.7a4.57,4.57,0,0,0-.14-1.69c-1.25-4.05-1.89-7.57,3.65-5.77-2.79,3.87.33,6.41,1.71,9.08C255,200.33,258.65,208.28,259,217.7Z"/><path class="cls-70" d="M249.26,183.42c-3.35.09-3.35,3.05-3.64,5.77-3.75-.78-5.89,4.18-9.57,3.65-1.15-1-3.16-.23-3.74-2.43,2-7.22,8-8.57,12.8-11.57,2.78-1.76,6-2.51,8.22-5.46,1.78-.65,3-.07,3.55,2.12C255,179.06,252.24,181.36,249.26,183.42Z"/><path d="M263.88,286.75c0,.5,0,1,0,1.52-4.14,4.67-9.71,3.73-14.7,5.07-4.86-2.58-2.53-7-2.17-11,3-5.82-1.09-13.89,4.33-19l1.3.44c-.07,3.11-.27,6.22-.2,9.32C252.76,287.5,249.91,286.26,263.88,286.75Z"/><path d="M252.73,242.5l2.76,1.83a48.36,48.36,0,0,1-2.86,19.44l-.3-.23c-3.1-3.17-1.92-7.61-2.55-11.52C249.59,248.35,249.79,244.85,252.73,242.5Z"/><path class="cls-71" d="M256.88,175.5,253.67,174c-1,.77-2,1-2.87-.31-3-4.62,1.55-4.19,2.9-5.91l3.8,2C260.76,172.18,258.18,173.75,256.88,175.5Z"/><path class="cls-72" d="M99.83,189.39l5-.27c4.1,1.87,8.39.33,12.56.91,1.53.22,4.11-1.12,3.76,2.75a5.12,5.12,0,0,0-1.45.24c-1.87,1.88-2.14,3.63.64,4.34,2,.51,4.11.83,6-.56,3.94.33,7.56-1.26,11.09-2.87s6.38-1,9.18,1.5c.64.57,1.38,2.06,1.67,1.93,6.29-2.91,11.63,1,17.2,3.13,1.55-1.61,3.28-2.12,5.23-1.11,3.89,2,7.48,4.19,12.18,1.72,2.71-1.42,5.28.74,4.54,5.21a6.41,6.41,0,0,1-5.51,3.67c-14.9,2.5-29.88.28-44.82.94-11.48-.33-22.89-1.89-34.32-2.9-.8-.11-2.09-.25-2.19-.84-1.15-6.51-5.41-8.37-10.09-10.28-2-.83-4.32-3.69.54-4.41A13.46,13.46,0,0,0,99.83,189.39Z"/><path class="cls-73" d="M91.06,192.49c-2.84,1.63-1.36,2.74.45,3.08,4.11.77,8.28,1.19,12.28,1.73.53,4.34-8.06,3.72-3,9.5-.42,1.24-1,2.07-2.26,1.25-3.43-1.2-11.14,3.76-7.7-7.29-5.5-1.58-8.72-7.51-13.81-9.88l.15-2.29C81.86,189.67,86.93,188.78,91.06,192.49Z"/><path class="cls-74" d="M57.1,140.85c1.89,3.86,7.18,1.22,8.54,6.08,1,.71.92,1.35-.09,1.93a5.37,5.37,0,0,0-2.86,5.55l-2.25.1c-.52-6-6.75-4.12-8.5-8.66C53,143.57,54.59,141.57,57.1,140.85Z"/><path class="cls-75" d="M51.11,315.75c1.11-4.33,2.11-8.59-2.4-11.34-2.57-1.57-2.28-4-1-6.38,7.37-14,7.2-30,9-45.56a23.47,23.47,0,0,1,.73,3.66c.53,13.45.5,13.59,12.39,15.06,3.35.42,5.39,2.64,7.49,5.11,3.11,3.63,6.39,6.64,11.21,4.65,1.81-1.18,3.33-1.62,3.32,1.8,2.54,5.72,9.95,7.19,9.81,15.26,2.54,2,3,5.25,3.57,8.29,3.06,15.85,9,29.93,18.58,41.8,1.13,1.8,1.59,4.12,3.17,5.59A11.94,11.94,0,0,1,128,355c6.1,8.77,5.6,10.42-3.81,12.6-3.75-.75-8.11,2.13-11.21-2.52l-6.22-11.79c-6.18-5.37-7.59-14-10.8-21.4-1.47-3.4-.73-8.15-4.45-10.13-6.11,3.35-9.76.16-12.26-6.22,2.84,8.72,7.92,15.54,13.16,22.32,7.08,9.15,5.94,13.34-4.34,16.25-7.56,2.14-14.26,5.51-19.08,13.17-2.3,3.65-5.5,6.31-9.9,4.28-7.21-10.68-7-23.88-9-36.32-.61-4,.09-8.18-1.15-12.12C48.72,320.29,48.8,317.59,51.11,315.75Z"/><path class="cls-76" d="M72.21,380.21c.61-10.61,4.73-16.2,14.48-19.68,6.68-2.38,18.27,1.2,21.76,6.68,2.86,4.49-.81,7.54-1.76,11.19-3.25,10.53-6.15,12.93-13.47,12.46-2.93-.19-5.91-6.65-8.89-.17C80.06,387.57,74.39,386.63,72.21,380.21Z"/><path class="cls-77" d="M49.17,280.81c.1,8-5.75,13.5-6.36,21.18,2.92,10.56,8.44,20.23,8,31.93,1.08,14.17,2.62,28.22,9.28,40.66a19.67,19.67,0,0,1,1.83,6.22l2.53,6.72c-5.38-2-10.69-.19-15.36-3.37,2.57-.26,5.17-.26,3-4.81-7.79-16.31-11.38-33.55-8.2-52.26a11.24,11.24,0,0,0-.88-5.54C36.92,306.25,41.42,293.21,49.17,280.81Z"/><path class="cls-78" d="M60.34,371.14c2.94-.44,4.92-2.73,6.67-5.15,5.93-8.18,13.56-12.39,22.5-14.2,6.93-1.4,7.62-4.22,2.44-10.39-4.8-5.71-9.43-11.51-12.71-18.56A65.85,65.85,0,0,1,76,314.16c-.61-2-1.3-4.74,1-5.85,2.66-1.29,2.94,1.7,3.7,3.65,1,2.6,1.63,5.75,3.3,7.61,2.8,3.13,5.78,3.75,6.28-2.51.83-.19,2-.1,2.11.76,2.07,13.58,9.29,24.91,12.18,38.12-1,4.73-3.57,1.37-5.09,1C84.64,353.8,75,359.4,68.26,375.11c-.74,1.72-.53,7-4.56,3.35C61.09,377,59.58,374.76,60.34,371.14Z"/><path class="cls-79" d="M126.22,397l-8.22.75c-10.61-8.64-10.34-17.34.89-28.75,1-1.16,2-1.08,2.87.2a4.48,4.48,0,0,1,.12,2.79c-3.8,8.18-2.26,13.87,5.58,16.77C128.59,391.82,128.34,394.6,126.22,397Z"/><path class="cls-80" d="M60.34,371.14l3.36,7.32-1.78,2.34c-10.44-13.17-11.35-29.9-12.75-46.45,2.33-3.66-.88-8.52,1.91-12.08C53.41,338.76,53.9,355.72,60.34,371.14Z"/><path class="cls-81" d="M104.55,355.94c-7.73-11.48-11-25.21-14.29-38.88.08-1.17-.48-2.7.88-3.25,2.4-.95,2.64,1.44,3,3.1,2.67,12.88,8.28,24.35,12.67,36.4Z"/><path class="cls-82" d="M72.21,380.21c2.06-.22,1.29,7.69,5.27,2.39,1.54-2.05,2.14.39,2.55,1.64.87,2.72,1.63,5.86,4.82,5.07s1.17-5,2.75-7.12c4.85,10,10.76,10.21,16.24.67.88-1.54,1.9-3,2.85-4.46-.09,13.38-.09,13.49-11.51,13.36a122.69,122.69,0,0,1-16.13-1.12C74.08,389.92,71.18,386.64,72.21,380.21Z"/><path class="cls-83" d="M121.32,368.87l-2.43.12c-2.45-.29-5.28.23-5.87-3.89,4,3.53,7.88-1.79,11.86-.22C125.07,367.89,124,369.35,121.32,368.87Z"/><path d="M275.13,380.43l3.58,1.81c-2.72,3.42-6.61,3.89-10.09,5.4-3.35-2.66-6.31-1.17-9.86.16-8.47,3.17-17.21,3.85-25.72-.52,1.27-1.25,2.72-2.35,4.36-2.29C250.16,385.49,262.34,379.46,275.13,380.43Z"/><path class="cls-84" d="M121.32,368.87c1.06-1.48,3.39-1.42,3.56-4,1.84-.8,4.18,1,6.92-3.28l-7.15-6.24c-.3-5.42,3.39-3,5.15-3.82-2.17-.25-4.88.71-6.93-1.81-13.94-13.41-18.7-32-21.27-51.71,1.92-11.47.59-21.81-7.26-30.14-2.79-3-3.34-7.52-3.51-11.41-.23-5.07,1-10-6-6.72-1.89.88-2.91-1.53-2.42-3.61,1.41-6,4.81-9.91,10.18-10.85,3.44-.6,4,2.26,4,5.43,0,6-.08,12.08,3.31,17.22,3.95,2.78,4,9.16,8.13,11.8a96.65,96.65,0,0,1,5,8.51c1.93,4.32,4.39,7.83,9,8.12a12.22,12.22,0,0,1,3.3.69c3.49,2.88,7.94,1.89,11.58,3.87-3.92-4-10-1.86-13.8-6.56-2.26-2-2.17-6.37-7.23-5.91-3.81.35-7-5-4.45-11.08-1.44-5.18,3.78-13.2-5.54-15.4-2-.47-1-7.52-.08-11.56.76-3.39,2.14-5.69,5.58-5.52,5.68.29,11.42,1.21,17,1.26,37.69.38,74.05-5.84,106.08-31.77,4.62-3.75,6.54-10.15,11.29-13.51,5,7.94,9.42,16.16,8.36,26.7-1.64,1-3.9,2.38-3,4.7,2.6,6.62.33,13.58,1.6,20.22-.16,2.9-.31,5.79-.47,8.68-2.27,2.22,2.16,8.43-3.71,8.54-2.75-.22-3.48,2.42-4.64,4.45,1.45-2.16,2.79-5.08,5.14-1a51,51,0,0,1,.19,19.51c.57,3.4-4.18,6.74-.09,10.18,2.52,3.21,1.12,6.3-.19,9.39-8.36,8.78-10.08,11.84-15.32,27.26a28,28,0,0,1-.83,3.87c-2.63,9-5.28,17.92-7.89,26.89-.72,2.46-2,4.84.28,6.87,6.79,6.14,5.4,14.41,4.48,22.58l-1.84,2c-1.62,1.33-4.2,2.78-5.17,1.06-2.16-3.86-3.29.79-4.85.2-4.34.21-8.69.27-13,.65-5.45.48-9.92-.4-9.67-8.65-3.83,1.41-1.69,9.75-8.12,7.37-4-1.49-5.3-3.62-4.81-8,.44-4-1.26-8.25,1.25-11.93,11.85-10.1,7.47-24.53,7.38-37.79,0-4.67.36-9.31.64-13.83-6.73,3.87-12.41,12.91-21.08,4.44-1.09-1.06-2.27,1.2-3.31,2.08-2.71,2.32-5.74,4-9.05,3.89-5.67-.18-6.1,3.72-5.55,8.69a74.48,74.48,0,0,0,6.35,29.83c1.48,3.29,3.67,6.4,2.62,10.57-.88,10.07-1.92,11.13-10,10.25-1.82-.74-3.62-1-5.33.49-7,1.89-14.2,5.3-19.88-3.35-2.94-.85-6.24,4.64-8.79-.31-2-3.89-.88-8,.83-11.79Z"/><path class="cls-85" d="M150.69,339.59c-2.57-6.47-4.34-12.15,5.28-10.86,6.69.89,11.06-4.16,14.95-10,3.22,11.3,11.5,9.1,23.05-6.05,1.63,3.22.4,6.08.16,9-.91,10.72-1.78,21.49.69,32.09,1.31,5.61,2.09,10.25-4.4,12.4-2.62.87-4.66,4.13-7,6.3-.86-2.5-1.73-5-2.59-7.48-.67-1.1.19-3.49-1.71-3.41-1.47.06-2,1.8-2.36,3.28-5.86,7.18-12.22,7.15-20.16-.09C153.19,356.85,152.88,347.92,150.69,339.59Z"/><path class="cls-86" d="M217.82,393c2.67-7.69,6.92,1.7,10-1.26-2.18,5.09-5.26,7.17-9.9,4Z"/><path class="cls-87" d="M157.5,362.89c6,5.92,12.61,4.69,19.29,2,.07,7.31-4,13.64-3.52,21.15.27,4.21-3,3.61-5.35,3.66-2.67.06-3.93-1.26-3.72-4.6a46,46,0,0,0-.47-6.59C160.45,373.94,155.65,370.23,157.5,362.89Z"/><path class="cls-88" d="M126.26,387.72c7,3,14,2.72,21.08.21q4.33,6-1.74,9.3L141,399.78A27.46,27.46,0,0,1,126.22,397Z"/><path class="cls-89" d="M157.5,362.89q3.12,7.8,6.23,15.58c-.59.78-1.19,1.55-1.79,2.33l-.78.23-.42-.81c-5.83-10.4-8.56-22.15-11-34.05-.52-2.53-1.4-4.78,1-6.58C156.08,346.12,155,355.22,157.5,362.89Z"/><path class="cls-90" d="M160.74,380.22a9.45,9.45,0,0,1,1.2.58c-.24,12.67-2.39,15.46-12.88,16.69-1.41-3.48.05-6.34,1.47-9.21C156.69,390.35,160.46,388.28,160.74,380.22Z"/><path class="cls-91" d="M150.53,388.28l-1.47,9.21-3.46-.26c1.42-2.89,2.4-5.89,1.74-9.3C148.65,385,149.48,388,150.53,388.28Z"/><path class="cls-40" d="M275.13,380.43c-13.54,6.38-27.64,8.06-42.09,6.85-.08-3.62-.17-7.25-.26-10.87-6.78-5.58-8.82-12.68-6.22-22.15,1.73-6.27,3.33-12.55,5.65-18.56,4.9-4.34,10.95-.7,16.11-3.18,4.68-4.18,5-8.27-.08-12.41a11.28,11.28,0,0,1-3.94-5.7c-1.16-4.3.37-7.66,2.74-10.72,9.76-.86,19,7.28,20.48,18q1.28,9.36-5.44,14.74A68.14,68.14,0,0,1,255,341c-3.77,2.35-5.41,6.16-5.23,10.93.19,5.1,3.09,7.84,6.92,9.42,3.34,1.39,6.85,1.89,10.31,2.66s7.07.93,9.5,4.55c-1.7,4.85-6.23,5-10.22,7.78Z"/><path d="M233.37,336.56c-1.16,4.18-2.27,8.39-3.49,12.55-2.8,9.66-3,18.92,2.9,27.3-3.5,3.66.28,9.62-3.1,13.32,1.1-12.63-1-17.27-11.38-23.85,8-9.35,7.61-22.86,12.77-33.65C232.7,333.05,233.29,334.62,233.37,336.56Z"/><path class="cls-92" d="M181.88,208.7c1.5-1.32,2.84-3.06,5-2.84,6.26-4.71,13.2-2.19,19.86-2.48,5.59-.24,6.62-.75,8.17-4.95l-1.61-2.93c3.52-6,8.91-3.33,13.58-4,3,.15,5,1.93,5.94,5.22-5.12,5.48-9.26,11.63-17.5,12.54-7.64.85-15.59.76-23.09,4.07-3.82,1.67-8,0-11.92-1.33C179.25,209.85,180.58,209.29,181.88,208.7Z"/><path class="cls-93" d="M91.79,282.75a3.27,3.27,0,0,0-3.32-1.8c-9-5.9-13-14.5-11-27.23,2.7,4.81,1.71,11.27,6.34,14.17,2.79-1.26.36-4.95,3.19-7,2.69,8.44,6.26,16.3,12.53,22.22C96.1,285.66,94,283.9,91.79,282.75Z"/><path class="cls-94" d="M181.88,208.7,180.3,212c-13.12,2.59-26.24,3.05-39.35,0-.95-1.45-3-.27-3.77-2.25,6.49-3.88,13.22-1.5,19.79-.71C165.32,210,173.56,206,181.88,208.7Z"/><path class="cls-95" d="M137.18,209.69l3.77,2.25c-14.37,2.17-28.43-.21-42.4-3.89l2.26-1.26C112.92,207.88,125.3,204.53,137.18,209.69Z"/><path class="cls-96" d="M124.55,288.5h-3.24c-4.26-1.86-7.34-5.44-10.09-9.48l-4.66-7.78c.48-2.27,1.64-3.78,3.63-4.34a5.68,5.68,0,0,0,1.24.48c.86,4,2.13,7.77,5.22,10.21,3-1.4.6-4.9,2.59-6.84,3.42,3,2.5,8.75,5.29,12.1C125.75,284.73,126.05,286.61,124.55,288.5Z"/><path class="cls-97" d="M110.19,266.9c-.4,2.37-1.31,4.16-3.63,4.34-2.9-4-5.59-8.07-6.63-13.3.15-1.82.3-3.64.69-8.33C103.37,257.66,104.87,264,110.19,266.9Z"/><path class="cls-98" d="M232.81,196.69c-2.43.11-3.29-2.32-4.66-3.91-1.82,1.15-2.4-.16-2.48-1.89a2.54,2.54,0,0,1,1.84-2.68c2.06-.55,3.66.43,4.83,2.43l3.71,2.2Z"/><path class="cls-99" d="M51.08,322.27c-1,4,1,8.53-1.91,12.08.2-7.45-2.79-13.94-5-20.57-1.3-4-2.11-7.66-1.4-11.79a42.71,42.71,0,0,1,8.3,13.76Z"/><path class="cls-100" d="M232.34,190.64c-1.47.51-4.54-3.23-4.19,2.14-4.43,4.78-10,1.26-14.86,2.72.15-5.25-3.22-10.08-1-15.65,3.77-9.49,9.29-11.8,19.44-8.82,6.2,1.82,12.11,8,19.07,2.62l2.87.31C248,182.05,238.88,184.08,232.34,190.64Z"/><path class="cls-101" d="M214.9,198.43l7.22,3.27c-12.54,5.28-23.82,5.48-35.25,4.16-.56-1-1.59-2.86-1.63-2.83-7.17,5.08-13.23-1.15-19.74-2.54.15-2.83-.11-6.66,3.81-4.4,4.7,2.7,9.1,3.06,14.33,1.81,7.6-1.82,15.32-.25,22.9,2C209.28,200.71,212.45,201.48,214.9,198.43Z"/><path d="M157.48,135.83l8.18-.17c-5,8.69,1.49,12.61,5.58,17s9.17,5.19,14.62,4.89c-5.26,6.44-11.26,5-15.86,0-5.38-5.74-8.71-7.62-14.46-.1-4.06,5.3-10.67,7.32-18.64.46,8.86.2,15.15-2.21,20-8.4C160.52,145,162.2,140.66,157.48,135.83Z"/><path class="cls-102" d="M65.55,148.86l.09-1.93,31.05-3.73C86.63,148.27,76.17,149.3,65.55,148.86Z"/><path class="cls-103" d="M111.6,125l-3-2.75c-.91-2.09-4.56-4.06-.2-6.37l9.61,6.38c1,2.07,5.56-1.28,4.52,4C118.46,130.81,115.26,125.18,111.6,125Z"/><path class="cls-104" d="M122.51,126.25c-.65-2.64-3.46-2-4.52-4,5.2.46,9.93-.41,13-6.14,3.4,3.83-2.48,5.89-1.31,9.29Z"/><path class="cls-105" d="M126.36,196.8c-4.5,3.08-9.12,2-14.86.88,2.64-3.67,5.43-4.12,8.18-4.66C120.44,197.82,123.82,196.28,126.36,196.8Z"/><path class="cls-105" d="M121.13,192.78c-4.86-4.76-11.4.67-16.32-3.66,5.4,0,10.83-.41,16.19.12C124.46,189.58,125,191.39,121.13,192.78Z"/><path class="cls-106" d="M108.38,115.89c-2.37,2.23.88,4.21.2,6.36-6.19-3.25-7.11-8.45-4.1-15.1C109,108.08,108,112.45,108.38,115.89Z"/><path class="cls-107" d="M211.4,122.08l-1.79-2.21c-.54-.42-.69-.8-.47-1.12s.41-.45.62-.45V103.61c5.3,3.36,2,9.37,4.63,12.51C214.31,118.73,212.9,120.44,211.4,122.08Z"/><path class="cls-108" d="M209.76,118.3a10.3,10.3,0,0,0-.15,1.57,15.8,15.8,0,0,1-9.89,5.66l-3-3.21C201.69,123.74,205.17,118.57,209.76,118.3Z"/><path class="cls-109" d="M202.35,109.62c.4-1.55,1-2.88,2.62-3a2.59,2.59,0,0,1,2.86,2.52c.22,2.23-1,3.41-2.85,3.41C203.37,112.59,202.78,111.15,202.35,109.62Z"/><path class="cls-110" d="M226.12,30.32c4.88-.95,6-7.14,9.79-9.59,4.55-3.95,7-4,6.77,4-.33,12.69-.09,25.4-.09,38.11-2.45-5.5-9.5-1.71-11.63-7.86,1.62-3,5.66-5.32,3.6-9.51-1.72-3.49-5.41-1.51-8.24-1.61-1.89-.06-3.82.44-4.91-2.05C223.08,38,226.2,35.07,226.12,30.32Z"/><path class="cls-40" d="M276.47,368.56c-7.31-.69-14.59-1.8-21.6-4.39-4.7-1.74-8.66-5.56-8.42-11.51s.8-12.57,7.74-15c5.29-1.85,11.38-4.06,11.25-12.85s-4.67-13.77-10.89-17.36c-2.18-1.26-4.36-2.55-6.53-3.83-1.31-.35-1.46-1.05-.46-2.08l1.59-8.68c3.87-6.06,9.63-3.88,14.72-4.6,7,9.21,19.18,11.15,24.07,23.32a72.79,72.79,0,0,0,2.48,14.74c2.85,10.43-3.4,19.55-3.52,29.61C281.52,358,281.57,366.17,276.47,368.56Z"/><path d="M248.93,256.54c4.23.87,1.24-4.39,3.33-5.35q0,6.17.07,12.35c-3.85,5.76.74,13.38-3.09,19.15-.64-7,.37-14.16-1.75-21C246.77,259.54,245.32,257.08,248.93,256.54Z"/><path class="cls-111" d="M122.87,349.73h11.61c-2.07,5.7-7.49,1.81-9.83,5.63C122.78,354,123,351.82,122.87,349.73Z"/><path d="M247.56,301.55l.46,2.08c-.17,4.06-2.93,7.45-2.24,11.73.91,2.71-1,3.92-2.15,5.53-3.42,2.55-5.2,7.37-9.21,9.1a3.55,3.55,0,0,1-3.11-1.28c1.61-4.63,3.07-9.12,3.34-14.36.24-4.61-.28-12.25,7.85-9C243.68,305.81,245.85,302.9,247.56,301.55Z"/><path class="cls-112" d="M124.55,288.5c0-1.88,0-3.77,0-5.65,6.57,2.31,13.59,3.53,19.91,12C136.55,292.77,129.87,294.31,124.55,288.5Z"/><path class="cls-113" d="M211.56,277.85c3.92-3.61,7-8.59,12.67-10.65-.17,4.57,1.5,9.41-4.7,9.48-2.71,0-3.9,3.09-5.86,4.64C211,281.82,210.6,280.39,211.56,277.85Z"/><path class="cls-114" d="M211.56,277.85a4,4,0,0,0,2.11,3.47,12.6,12.6,0,0,1-10.38,5.38,1.92,1.92,0,0,1-.16-2.53c1.17-2.37,2.47-4.68,3.49-7.14C209.08,271.13,210,276.83,211.56,277.85Z"/><path class="cls-115" d="M248.93,256.54c-1.62,1.3-.8,3.51-1.44,5.17-2.67,2.27-3.31,7.16-7.64,8,1.31-5.77,5.36-9.41,6.52-15.05C246.91,252,248.51,254.81,248.93,256.54Z"/><path class="cls-116" d="M203.13,284.17c.06.85.11,1.69.16,2.53-2.49,2.64-5.56,3.12-8.77,3.28C198.38,290,195.68,276.65,203.13,284.17Z"/><path class="cls-117" d="M203.15,337.18l12.1,1.75C209.51,343.28,206.27,341.19,203.15,337.18Z"/><path class="cls-112" d="M111.22,279c3.61,2.79,7.36,5.4,10.09,9.48C115.45,289,113.26,284.09,111.22,279Z"/><path d="M250.85,334.72c-.12-.81-.25-1.61-.37-2.41-2.44-4.78-5.25-9.27-7.93-13.85l3.23-3.09C256.3,322.49,257.27,326.2,250.85,334.72Z"/></g></g></svg>