<svg xmlns="http://www.w3.org/2000/svg" viewBox="0 0 328.79 549.01"><defs><style>.cls-1{fill:#3b2337;}.cls-2{fill:#a398a1;}.cls-3{fill:#443044;}.cls-4{fill:#483548;}.cls-5{fill:#3f273b;}.cls-6{fill:#483448;}.cls-7{fill:#4d3a4d;}.cls-8{fill:#4b384b;}.cls-9{fill:#574456;}.cls-10{fill:#fe9d34;}.cls-11{fill:#faf9f9;}.cls-12{fill:#fe8219;}.cls-13{fill:#d4b9a7;}.cls-14{fill:#caad9b;}.cls-15{fill:#9e7a76;}.cls-16{fill:#e98334;}.cls-17{fill:#f8f6f6;}.cls-18{fill:#ece3d4;}.cls-19{fill:#dcc8b5;}.cls-20{fill:#caad9c;}.cls-21{fill:#d4b9a6;}.cls-22{fill:#453144;}.cls-23{fill:#9e7975;}.cls-24{fill:#d4b9a8;}.cls-25{fill:#463245;}.cls-26{fill:#55455c;}.cls-27{fill:#c9ac9a;}.cls-28{fill:#94859a;}.cls-29{fill:#56465c;}.cls-30{fill:#d3b9a7;}.cls-31{fill:#9f7b77;}.cls-32{fill:#53455c;}.cls-33{fill:#c7a997;}.cls-34{fill:#d8c4b2;}.cls-35{fill:#4d3747;}.cls-36{fill:#a07d79;}.cls-37{fill:#dbc6b3;}.cls-38{fill:#4a3446;}.cls-39{fill:#4f3846;}.cls-40{fill:#5a4b62;}.cls-41{fill:#55475f;}.cls-42{fill:#4b3648;}.cls-43{fill:#9d7f7e;}.cls-44{fill:#c5a99a;}.cls-45{fill:#583d47;}.cls-46{fill:#574557;}.cls-47{fill:#c6a690;}.cls-48{fill:#554254;}.cls-49{fill:#dbc7b4;}.cls-50{fill:#eae0d1;}.cls-51{fill:#c7aa98;}.cls-52{fill:#4b374b;}.cls-53{fill:#c1a494;}.cls-54{fill:#3c2437;}.cls-55{fill:#3c2337;}.cls-56{fill:#53445c;}.cls-57{fill:#463244;}.cls-58{fill:#d47c5a;}.cls-59{fill:#483346;}.cls-60{fill:#ede2d1;}.cls-61{fill:#d5b9a6;}.cls-62{fill:#ede1cf;}.cls-63{fill:#4b3445;}.cls-64{fill:#a47e77;}.cls-65{fill:#d6baa6;}.cls-66{fill:#d57c54;}.cls-67{fill:#dfc8b1;}.cls-68{fill:#b0938f;}.cls-69{fill:#f39a49;}.cls-70{fill:#fba54d;}.cls-71{fill:#faa44c;}.cls-72{fill:#9f7a76;}.cls-73{fill:#463145;}.cls-74{fill:#a07a76;}.cls-75{fill:#473245;}.cls-76{fill:#5c4a5d;}.cls-77{fill:#fea143;}.cls-78{fill:#fea346;}.cls-79{fill:#341c35;}.cls-80{fill:#453145;}.cls-81{fill:#ebe2d3;}.cls-82{fill:#54465f;}.cls-83{fill:#473346;}.cls-84{fill:#dfcdbc;}.cls-85{fill:#ddc8b6;}.cls-86{fill:#54465e;}.cls-87{fill:#493548;}.cls-88{fill:#a07c77;}.cls-89{fill:#a67f78;}.cls-90{fill:#53455e;}.cls-91{fill:#41293c;}.cls-92{fill:#d87951;}.cls-93{fill:#e89668;}.cls-94{fill:#d3b8a6;}</style></defs><g id="Capa_2" data-name="Capa 2"><g id="Capa_1-2" data-name="Capa 1"><path class="cls-1" d="M232.85,0c6.94.07,11.4,4.18,14.87,9.53,10.13,15.58,15.77,32.9,19,51a207.4,207.4,0,0,1,3.14,42.74c-.15,5-1.84,9.78-2.59,14.71a16.86,16.86,0,0,0,2.19,12c6.66,10.46,11.4,22.25,21.67,30.21,3.12,2.41,2.65,5.78-1.05,7.64s-3.95,4-1.23,6.89c1.46,1.58,2.68,3.39,4.06,5.05,2.24,2.71,1.9,5.29,1,8.72-2.43,9.78-8.09,18.14-11.21,27.58A66.66,66.66,0,0,1,273,235.61c-4.7,6.28-5.26,13.56-3.7,21a58.32,58.32,0,0,0,9.51,21.78c2.8,4,5.12,8.15,5.28,13.23.08,2.34,1.18,4.16,3.76,4.62.16,0,.31.12.48.15,22.66,3.67,29.44,21.42,34.1,40,5.16,20.57,2.15,40-12.38,56.59-3.4,3.89-2.69,7.87-.63,12,4.71,9.52,9.78,18.92,12.29,29.34a116,116,0,0,1,1.93,12.79c.39,3.13,1.24,5.6,5.17,4.93v20c-6.43,12.79-14.93,24.34-22.12,36.68a5.43,5.43,0,0,1-1.67,1.83c-12.43,8.25-24.05,18-39.08,21.47-3.7.86-5.72,2.73-5.94,6.79-.34,6.22-5.19,8.34-10.14,10.2h-43c-4.12-1.28-8.53-.69-12.64-2a12.1,12.1,0,0,1-4.86-2.39c-2.56-3-.79-6.13-.46-9.22a14.32,14.32,0,0,0,.65-5.16c-.27-2.34,1.09-5.36-1.71-6.71-2.52-1.21-4.65.76-6.73,2.1-6.6,4.25-13.65,7.28-21.62,7.76-1.77,0-3.53,0-5.3,0a23.82,23.82,0,0,1-14.6-5.58c-7.49-6.12-15.73-5.45-24-2.18-4.26,1.69-5.15,6.28-7,9.93-.89,1.76-1,3.87-2.33,5.47-7.71,4.16-16.31,4.56-24.67,5.23A135.8,135.8,0,0,1,41,543c-7.08-1.59-8.52-3.09-9.1-10.28-.26-3.1-2-3.9-4.52-4.15C22.23,528,17,527.85,12,526.85c-5.39-1.08-11-2.41-11.49-9.63C.23,514.16,1.1,511,0,508v-2c1.35-.3,1.08-1.5,1.27-2.39,1.89-8.7,6.62-14.66,15.63-16.79,4.72-1.11,5.52-4.53,4.83-8.88a68.71,68.71,0,0,1,1.53-30.15A54.56,54.56,0,0,1,34.2,427.86c2.31-2.75,3.74-5.37,3.11-9.76-2.91-20.18-4.87-40.49-4.29-60.94.14-5.12.65-10.25,1.16-15.36.2-1.95.12-3.55-1.51-4.93a7.2,7.2,0,0,1-2.77-6.61c-.36-5.47-.94-10.94,0-16.41l.15-1.74c1.64-1.78,1.13-4.2,1.86-6.24,0-3,1.71-5.32,3.36-7.6,2.17-3,2.05-5.65-1.42-7.38-4.31-2.14-3-4.44-.4-6.76,1.72-1.53,3.68-2.79,5.53-4.17,1.45,1.14,1.15,3,1.71,4.44.34,1,.54,2.1,1.86,2.31,2.5.51,5.91-.76,7.2,2.09,1.39,3.07-1.69,5.08-3.39,7.08-5,5.92-7.73,13-10.32,20.09-.92,2.3-2.37,4.48-2.54,7s-.34,5.31,3.68,4.51a14.6,14.6,0,0,0,2.16-2.07c1.29-1.48,2.47-3.58,4.81-2.72,2.66,1,2,3.46,1.76,5.58a29.71,29.71,0,0,0,0,12.42c.34,1.29.85,2.58.16,3.91-6.31,5.13-3.38,11.8-3,18.05a11.5,11.5,0,0,1,.31,3C42.18,388.08,46.61,410,49.94,432c1.57,10.38,2.94,20.77,6.26,30.78,1.95,8.8,3.92,17.61,6.95,26.13q.7,2.49,1.59,4.94c.85,2.18,1,4.58,2.29,6.63,2.53,4.21,7.66,3.6,11.15,6.05,1.52,3.5,1,4.7-2.44,4.46-3.81-.28-7.67-.29-11.42-.86-4.2-.64-8.26-.11-12.39.2-4.54.35-7.94,2.2-10,6.37-1.79,2.19-3.17,4.53-2.66,7.53,0,1.05,0,2.09,0,3.13-.12,3.23,1,5.14,4.65,4.64.49-.06,1.19-.12,1.46.16,5.67,6,13.26,1.39,19.74,3.63s13.46-.33,20.19-1c2-.2,4-.2,6-.25,6.69-.2,8.73-2,9.81-8.73a62.82,62.82,0,0,0,.35-10.44,55,55,0,0,1,.9-11.88c3-16.91,5.49-33.91,8.42-50.84.34-1.93.53-3.94,1.75-5.62,1.57-1.08,2.76-.4,3.82.84,1.26,2.49,1,5.11.51,7.69a25.15,25.15,0,0,0,1,14,7.65,7.65,0,0,1-.19,4.11c-3.53,4.36-4.43,9.13-2.29,14.42a4.9,4.9,0,0,1,.14,3.42c-.7,1.79-3.08,2.42-3.16,4.64-.38,3.8.08,7.64-.68,11.44-.48,2.4-1.23,5.18,1.39,6.82s5.73,1.55,8.66.5c1.43-.51,2.4-1.75,3.59-2.67a7.63,7.63,0,0,1,5.28-1.47,7.19,7.19,0,0,1,4.11,1.6c7.76,6.52,17.53,7.5,26.8,9.86.64.16-.18,0,.48.1,8.82,1.4,27.28-11,29.39-19.73.11-4.84.09-9.67,0-14.5a36.37,36.37,0,0,1,.44-7.94c.93-2.85,1.46-6.22,5.88-4.71,2.59,2.13,2.55,5,2.15,7.91-.53,1.76-.74,3.58-1.1,5.38a14.18,14.18,0,0,0-.6,5.1,31.87,31.87,0,0,0,2.69,12.87c1.08,5.19-.25,10.22-1.08,15.27-.71,4.34-.76,8.57,1.13,12.64,2,4.68,6.23,3.91,10.08,4a20.76,20.76,0,0,1,3.78.23c3.41.67,7.1,3,10.2,1.5,5.94-2.79,11.13-4.45,17.78-1.32,3.56,1.67,8.27-3.65,8.7-8.3a18.63,18.63,0,0,0-.66-6.43c-.82-6.22-4.63-9.63-10.46-11.18-1.74-.46-3.59-.76-4.93-2.18a5.24,5.24,0,0,1,.43-5.37A8.54,8.54,0,0,1,239,503c3.78-1.67,5-5.17,6.1-8.69,6.16-19.7,11.84-39.54,17.37-59.42q3.21-11.55,5.86-23.24c.42-1.86.76-4.59,3.12-4.45,1.95.13,2.07,2.78,2.36,4.53a28.58,28.58,0,0,1-.26,11.9c-2.31,8.87-2.89,18.05-4.72,26.95-2.05,10-4.42,20.09-9,29.39A25.6,25.6,0,0,0,256,493a17.92,17.92,0,0,1-1.47,5.06,9.59,9.59,0,0,0-1.94,9.75,29.45,29.45,0,0,0,1.9,5.15c1.34,3.39,1.56,7.31,4.73,9.81,3.53,0,7.23,1.58,10.42-1.22,8.5-4.24,16.14-9.75,23.59-15.57,1.51-1.19,3-2.43,1.94-4.55-1.69-3.54.58-5.15,3-6.77,8.49-5.61,15.34-12.62,18.95-22.36,2.48-6.15,2.49-6.2-3.38-7.41-3.88-.8-2.86-3.46-2.19-5.79,2.11-7.33,2.61-14.62,0-21.94-1.33-6.23-4.11-11.93-6.68-17.67-9.35-20.85-15.85-42.61-21.28-64.73-2.38-9.68-4.43-19.43-6.25-29.21-.41-2.25-2.93-2-4.05-3.45-1.49-3.08.43-6.18-.16-9.35a40.3,40.3,0,0,0-7.44-17.26c-2.09-2.79-2.07-4.95,2-5.54,3-.43,3.68-1.88,2.07-4.45a61.51,61.51,0,0,1-6.42-14.59,82.67,82.67,0,0,1-3.2-15.6c-3.92,1.85-6.43,4.95-9.45,7.3-2.77,2.14-5.37,4.5-8.46,6.17-1.61.87-3.29,1.73-5.2.81-1.32-2.72,1.12-3.82,2.41-5.29,11.31-12.91,22.25-26.06,29.79-41.68,1.74-3.61,2.84-7.46,4.54-11.07,1.41-2.64,3.49-4.82,5-7.38,2.07-3.47,2.36-7-.62-10.05-6.31-6.34-3.48-6.87,3.38-8.41,2.83-.78,3.43-2.23,1.64-4.7-2.44-3.36-5.41-6.33-7.08-10.23-1-2.34-1.52-4.51,1.09-6.1,3.8-2.29,2.5-4.77.43-7.4-7.77-9.9-13.24-21.08-18.13-32.59a15.3,15.3,0,0,1-1-9.73c7.05-31,.1-60.38-11.06-89.15a35,35,0,0,0-9.85-14.22c-5.41-3.54-8.24-3.3-14.24,1.53-12.24,9.84-23,21-30.44,35a9.4,9.4,0,0,1-.89,1.09c-3.38,3.51-6.48,7.17-6.89,12.34-.07,1-.83,1.36-1.65,1.65-8.18.07-16.2-1.48-24.23-2.63-9.08-1.29-17.87-1.11-26.46,2.32a12.33,12.33,0,0,1-3.91.75c-3.25-.61-7.45,1.26-9.12-3.48,16-6.6,32.49-7.46,49.32-4.45,7.63,1.36,10.41.31,14.29-6.52A157.53,157.53,0,0,1,218,7.55C222.31,3.82,227,.7,232.85,0Z"/><path class="cls-2" d="M.92,517.08.47,517,0,517v-9C1.91,510.88.64,514.06.92,517.08Z"/><path class="cls-3" d="M119.88,60.11c2.66,2.47,6,2,9.23,2.19-.26,2.17-2.18,2.4-3.66,2.82-10.59,3-20.33,8.24-30.62,12a10.92,10.92,0,0,1-3.83,1c-1.16,0-2.45,0-3-1.3-.42-1.07.39-1.87,1-2.62s1.52-1.29,2.2-2c2.74-3,2.72-5-.5-7.5-3.93-3.09-8-6.05-11.36-9.73-7.65-9-18-14-28.42-18.84-4.47-2.15-8.76-4.83-14-4.63-2,.08-4,0-5.73,1.28-4.59,3.91-5.91,9.54-7.61,14.88-5.51,17.41-6.46,35.21-4.27,53.25-.33,7.57.23,15,4.41,21.59,1.23,10.26,7.44,18.68,10.5,28.27a7.24,7.24,0,0,1-3.46,3.69C15.35,132.12,10.7,106.83,10.88,80.25A137.4,137.4,0,0,1,17,41,45.8,45.8,0,0,1,21.81,30.1c3.87-6.25,9.33-8.78,16.54-7.36C50,25,60.08,30.75,70,36.91A139.34,139.34,0,0,1,93.7,55.85c6.31,6.19,13,9.76,21.81,4.79C116.69,60,118.41,60.26,119.88,60.11Z"/><path class="cls-1" d="M30.82,154.49c.22-1.93,1.09-3.23,3.21-3.33a2.54,2.54,0,0,1,1.42-.69c3.47.48,3.91,2.91,3,5.5C34.1,168.66,33,182.22,28.31,194.8a7.41,7.41,0,0,1-.6,1.35c-1,1.51-2.38,2.82-2.94,4.65-2.5,5.32,2.47,3.61,4.45,4.71,2.2,1.42,5.94.52,6.93,3.19s-2.6,3.84-3.7,6c-1.81,3.56-1.29,6.63,1.11,9.68,7.36,9.38,15,18.54,22.63,27.69,1.16,1.4,2.6,2.63,2.53,4.68-.72,3-4.08,4-5,6.82a2.26,2.26,0,0,1-1.19.85c-5.47-1.2-3.37-6-4.44-9.29-8.45-9.19-16.34-18.84-23.86-28.8-2.42-3.21-4.52-6.19-2.09-10.36,1.33-2.28-.84-3.21-2.2-4.3-7.37-6-7.2-5.85-2.45-14.14A97,97,0,0,0,28,170C29.14,164.86,32.23,160.08,30.82,154.49Z"/><path class="cls-4" d="M48.1,255.14c1.57,3,.51,7.44,4.82,9,1.89,2.13.77,4.26,0,6.39a5.13,5.13,0,0,1-3.34,2.67c-1.82.26-3.61.42-5-1.2C46.22,266.46,49.44,261.27,48.1,255.14Z"/><path class="cls-5" d="M44.61,272l5.6.21c1.38,3.62-.46,5.61-3.54,7-2.11.34-4.21.65-5.92-1.12C41.45,275.65,43.29,274,44.61,272Z"/><path class="cls-6" d="M40.75,278.05l6.27.09c.26,4.63-4,6.57-5.9,9.91-1.42-.59-1.07-1.87-1.15-3a9.37,9.37,0,0,1-.08-6.14C40.17,278.63,40.46,278.34,40.75,278.05Z"/><path class="cls-7" d="M29.86,313.85c.28,5.47,2.37,10.94,0,16.41C26.72,324.8,27.81,319.33,29.86,313.85Z"/><path class="cls-8" d="M31.87,305.87c.31,2.35,1.65,5-1.86,6.24A6.56,6.56,0,0,1,31.87,305.87Z"/><path class="cls-9" d="M39.89,278.93c0,2.05,0,4.1.08,6.14-1.7-1.43-.73-3.4-1-5.11Z"/><path class="cls-10" d="M35,151l-1,.18c-4.6-8.93-10-17.53-11-27.91-1.36-7-2.36-14.07-3.45-21.12.28-10.11-2-20.19-.07-30.36,2.15-11.29,3.84-22.68,10.15-32.66,1.43-2.27,3-4.39,5.69-5.4C39.82,33,43.66,35,47.66,36.32c9.07,5.5,18.61,10.22,27.42,16.2a19.22,19.22,0,0,0,5.08,2c3.62,2.92,7.21,5.88,10.88,8.73,5.14,4,5.24,6.25.32,10.63l-2.89,2.58.61,1.34,40-15.5c16.85-7.54,33.85-2.18,50.81-.59,1.64.15,3.29.26,4.94.4,2.45-4.6,6.71-8.29,7-14l0,.06c8.93-6.53,14.52-16.16,22.11-23.95,4.53-4.65,9-9.19,14.45-12.74,1.77-1.15,3.68-2.6,5.7-.29,12.27,17.21,17.76,37,22.07,57.3,1,4.54,2.25,9,2,13.78-.42,7.12-6.2,10.81-12.56,7.63-3.89-2-8.61-3-10.67-7.65a21.06,21.06,0,0,1-.43-4.88,22.82,22.82,0,0,1,.4-4.74,9.92,9.92,0,0,0,.1-6.5A193.64,193.64,0,0,0,229,39c-.7-2.22-1.08-4.77-4-5-2.73-.2-4.11,1.78-5.22,3.92-1.47,2.84-4.28,5.36-2.23,9.07.78,1.85-1.71,4.81,2.14,5.74,1,.24.65,2.06.48,3.2a19.31,19.31,0,0,1-1.81,5.63c-3.6,7.37-3.59,7.36,4.26,7.51,2.42,0,4.71.43,4.9,3.6-.59,2-2.24,3.5-2.93,5.49a26,26,0,0,1-2.85,3.44q-2.11,2.6,1,3.83c5.63.29,8.65,3.78,11.51,8.28,7.14,11.21,14.93,22,21.4,33.65,3.63,6.54,7.3,13.06,11.35,19.36a25.08,25.08,0,0,1,3.7,8.69c1.07,5.56.33,10.59-4.82,14.07-3-.18-4.49-2.64-6.33-4.45a57.11,57.11,0,0,0-19.84-13c-9.42-3.58-18.75-4.13-27.85,1.05-2.43.68-3.76,3.15-6.21,3.81-5.54-1.24-7.62-3.69-8.26-9.66,4.87-6.75,11.54-10.06,19.8-10.37,1.25-.05,3,.57,3.57-.87.6-1.66-1.13-2.61-2.29-3.41-4.63-3.2-9.36-2.47-14.06-.1-2.34,1.18-4.25,3.19-7,3.65a8.56,8.56,0,0,1-5.22-1.4c-6.73-4-13.95-3.73-21.29-2.62-9,1.16-18,2.22-27,3.45-2.62.36-5.35.54-6.73,3.37a4.62,4.62,0,0,1-1.47,1.69c-5.54.59-8.25,4.26-9.86,9.12a4.13,4.13,0,0,1-1,1,12.91,12.91,0,0,1-4.19,1,3.33,3.33,0,0,1-1.37-.43c-1.68-1.13-2.57-3-4-4.36a14.48,14.48,0,0,0-15.09-3.68c-5.11,1.54-8.4,4.74-10,10.77,10.57-4.33,20.21-4.47,29.19,2.13-.21,6.63-4.34,11.1-10.65,10.1C86,162.65,69.17,173.3,53.78,187.75c-4.6,4.32-9,8.83-14,12.76-3.25,2.58-6.49,5.25-10.87,5.69-.67,0-1.34,0-2,.07-1.67.16-3.45.45-4.49-1.28-1.26-2.11.6-3.33,1.6-4.76A15.55,15.55,0,0,0,27,196.1l0,.05c5.38-5.33,6.2-12.68,8.47-19.36,1.6-4.71,2.26-9.69,3.44-14.52,1.29-3.39,3.09-6.62,3.22-10.37a9.94,9.94,0,0,1,.76-2,18.38,18.38,0,0,0,1.41-4.46,6.49,6.49,0,0,1,.59-1.25c5.26-6.71,8.23-14.6,11.26-21.9-4.78,2.94-5.43,9.47-9.61,13.47a19.68,19.68,0,0,0-8.91,11.84C37.17,149.06,36.62,150.46,35,151Z"/><path class="cls-11" d="M41.12,288.05c-.09-4.53,5.32-5.78,5.9-9.91a7,7,0,0,0,3.19-5.95l1.88-2.05c4.2-1,5,2.36,6,5A76.33,76.33,0,0,0,66,291.18c9.91,14.44,24,22.2,40.89,25.34,10.23,1.91,20.53,1.55,30.83.55s20.29-.31,30.06,3.1c6.36,3.54,12.26,7.84,18.9,10.95A68,68,0,0,0,212,337.81c7.24.41,10.08,4.19,8.47,11.28-1.71,7.46-5.38,14.24-7.62,21.52-3.86,6.28-9,11.59-13.61,17.24a108,108,0,0,1-11.65,6.73c-5.58,2.76-8,1.4-8.83-4.71-.18-1.29.17-2.66-.91-4.42-2.15,3.56-4.08,6.94-6.4,10-6.27,8.4-12.47,16.88-20.86,23.36-5.4,4.16-8.08,3.67-11.61-2.21-2.83-4.7-5-9.76-7.55-14.86-.94,2.58-2.18,4.87-4.82,5.9s-5.24.07-7.62-1.21c-9.82-5.24-18.41-11.92-24.61-21.36a56.3,56.3,0,0,0-4.28-5.52c.4,6.72-.3,12.63,0,18.62.15,3,.91,6.52-3,8.17a4.62,4.62,0,0,1-2.82-1.92c-7.38-9.64-15.07-19.1-18.69-31a18.2,18.2,0,0,0-.85-2.34c-.43-.9-.84-1.93-2-1.88s-1.56,1-2.08,1.91c-3,5.15-4.91,5.19-7.92,0-2.24-3.89-4.32-7.89-5-12.43-.29-4.94-2.46-9.63-1.87-14.67l-1-2.9a46.4,46.4,0,0,1,0-13c-.18-1.7,1.6-4.14-1-4.91-2.16-.65-2.54,1.47-3.25,3.21-.5,1.23-2.4,1.89-3.68,2.8-3.54-1.62-3-4.95-3-7.86a23.85,23.85,0,0,1,.84-5.23A59.88,59.88,0,0,1,50,289.69C47.11,287.12,44,288.38,41.12,288.05Z"/><path class="cls-12" d="M317.81,473.07c-3,10.61-10.87,17.18-19.54,22.9-2.48,1.64-4.12,2.75-1.52,5.52,1.14,1.21.71,2.54-.46,3.47-8.23,6.59-16.29,13.46-26.41,17.14-3.09,3-6.89.74-10.29,1.42-3.09-2.8-2.7-7.55-5.78-10.36-1.61-1.37-2-3.23-2.21-5.21-.45-3.56.74-6.77,2.17-9.92.38-1.6.77-3.19,1.16-4.78.92-4.51,2.82-8.74,3.83-13.23,2.89-9.23,5.76-18.47,8.68-27.69,1.06-3.37.93-7,1.07-10.33.39-9,5-17.21,4.32-26.31a25.86,25.86,0,0,0-1.54-8.16c-2.47,5.1-3,10.42-4.3,15.47-6.38,24.54-13.54,48.86-21,73.09-1.12,3.64-2.13,7.54-7,8-4.19,1-5.36-1.39-5.33-4.9,0-2.68.92-5.22,1.52-7.8,3.2-13.74,6.26-27.51,7.93-41.53a21.18,21.18,0,0,0,.29-5.73c0-3.49.2-7,0-10.47-.5-7.31-3.88-10.09-11.18-9-4.78.69-9.21,2.79-13.91,3.85-6.93,1.55-13.78,4-21.07,2.21a2.71,2.71,0,0,1-1.12-1.25c-.28-7.2.59-14.39-.26-21.63-.4-3.36,1.63-6,5.61-6.09a8.25,8.25,0,0,0,6-2.16c6.44-1.84,10.43-6.32,13.14-12.19,4-3.42,8.09-6.54,13.52-7.21,3-1.86,4.92-4.87,7.74-6.91,7.87-4.2,11.61-11.42,14.32-19.44,1.16-3.41,1.86-7.11,5.11-9.4a21.14,21.14,0,0,1,2.62-1.17c4.57-1.65,5.66-6.08,7.63-9.73,1.15-2.15,1.83-4.57,3.19-6.61.92-1.37,1.62-3.43,4-2.49,6.33,35.11,15.58,69.34,30.72,101.79A32.88,32.88,0,0,1,312.74,437c-.1,5-1.86,8.54-6.86,10.81-4.63,2.1-6.95,6.82-9.33,11.24-.92,1.72-2.27,5.55-4.81,1-.29-1.45-.2-2.93-.4-4.38a32.88,32.88,0,0,1-.81-8.28,21.37,21.37,0,0,0-1.84-8.23c-2,2.51-1.62,5.24-2.4,7.54a32.15,32.15,0,0,0-.12,4.39c-.34,8.3.54,16.63-.88,24.91a65.88,65.88,0,0,1-2.83,10.57c-.69,1.94-2.55,4.15-.54,6s4.41.16,6.46-.79a55.49,55.49,0,0,0,17.88-12.52,27.17,27.17,0,0,1,6.53-5.36C314.33,473,315.88,471.68,317.81,473.07Z"/><path class="cls-13" d="M274.6,212.06c-5.27,17.22-15.79,31.28-27.07,44.87-3.39,4.08-6.94,8-10.42,12.06a13.76,13.76,0,0,1-13,10.05c-10.4.56-15.55,7.13-20.23,14.9-1.73,2.87-.86,4.33,2.3,4.78,5.93.84,11.82,1.91,17.73,2.91,14.21,2.38,21.23,11.21,20.1,25.46A33.39,33.39,0,0,1,238.62,343c-1.38,2.08-2.7,4.77-6.1,4-1.56-2.44-1-5.17-1-7.79-.3-17.44-10.34-27.47-27.82-27.7-4.15-.05-8.32.11-12.47-.05-5.75-.24-11.42-1.45-16-5-9.93-7.8-21.43-10.22-33.58-10.9-2.77-.09-5.53,0-8.29,0-15.13-.94-29.34-5.36-43-11.74-4.33-2-9.16-3.1-12.84-6.44-1.07-2.28-1.76-4.62-1-7.15,2.91-2.37,5.7-.67,8.41.39,10,3.88,20,7.17,30.88,7.25a32.7,32.7,0,0,0,11.22-2c7.85-2.8,10.53-9,7.22-16.71-2.06-4.79-5.49-8.69-8.51-12.86-1.65-2.29-3.46-4.52-3.86-7.45-.18-1.33-.17-2.74,1-3.66s2.61-.29,3.63.54c4.91,4,10.59,6.84,15.53,10.75,1.64,3.64,2.91,7.62,7.62,8.52a122.45,122.45,0,0,0,16.14,5.33c23.51,11.29,51-14.78,46.57-31.83-3.63,4.2-7.94,8.69-11.6,13.68-6.42,6.07-13.29,11.39-22.16,13.4-1.91.44-3.83,1.17-5.76,0-2-4.59,2.61-5.88,4.28-8.64a12,12,0,0,1,5-3,24,24,0,0,0,13.86-9.85c12.28-13.48,19.56-29.48,23.74-47a17.77,17.77,0,0,1,1.64-5.21c1.58-1.91,3.74-2.05,5.87-1.55a10.79,10.79,0,0,0,11.51-3.73,9,9,0,0,1,3.24-1.25c1.83-.33,3.85-.62,5,1.21s0,3.61-1.39,4.85c-3,2.7-3.35,5.93-2.38,9.57s.87,7.24,1,10.9c.2,8.48,4,12,12.48,11.94,3.72,0,7.2-1.12,10.74-2.07C269.87,211,272.33,210.15,274.6,212.06Z"/><path class="cls-14" d="M232.89,347.12c11.88-9.75,13.46-29.9,3.17-39.34-4.34-4-9.87-4.45-15.19-5.45s-10.44-1.54-15.68-2.23c-4.33-.57-5.24-2.23-3-5.86,1.66-2.68,3.28-5.41,5.18-7.91,3.19-4.2,7.1-8,12.61-7.95,7.67,0,12.7-3.93,17.13-9.39,3.33.4,5.66-1.59,7.95-3.48,5.11-4.2,10.13-8.52,15.46-13,2.17,3.28,1.33,7.07,2.13,10.45a77.75,77.75,0,0,0,8.21,21.72c3.21,5.49,2.84,6.13-3.66,6.39-.66,0-1.31.16-2.91.37,7.84,9.07,11.95,19,9.6,30.67a51.89,51.89,0,0,1-10.12,22.45l-2.18.23c-2.82-2.29-1.61-6.35-4.08-9.07-.85,12.72-6.71,23.48-12.25,34.35a15.91,15.91,0,0,1-3.39,4.22c-2.21,2.5-4.27,5.17-7.13,7-3.11-2.1-1.81-5.35-2.1-8.17-.22-2.12.82-4.17.48-6.66C229,373,224.93,379.22,221.77,386c-4.62,4.52-7.88,10.39-13.62,13.81-1.2,2-2.6,3.61-5.26,3.14-1.87-2-1.21-4.55-1.37-6.91-.12-1.93-.14-3.87-1.11-5.62a9,9,0,0,1-1.61-3.33l13-16c2-2.95,5.22-4.57,7.87-6.78C225.34,359.47,228.72,353,232.89,347.12Z"/><path class="cls-10" d="M63.84,494.06c-.5-1.34-1-2.69-1.49-4-.53-7.61-1.44-15.15-4.56-22.21-1.44-3.27-.79-6.89-1.9-10.2-3.2-17.67-6-35.4-8.8-53.12-1-6.55-1.93-13.17-1.57-19.85.1-2-.15-4,1.51-5.59,3.23.1,3.79,2.94,4.66,5.05A11.9,11.9,0,0,0,58.48,391a22,22,0,0,1,10.42,9.76,67.89,67.89,0,0,0,24,24.9c.71.43,1.31,1,2,1.49,10.13,6.73,13.07,16.4,11,27.86-2.73,15.41-5.58,30.81-8.4,46.21-.29,1.6-.39,3.35-1.92,4.46-3.58,1.41-7.26.72-10.91.61-1.61-.24-3.15-.73-4.73-1.09-4.71-1.84-9.72-3-14-5.72C65.18,497.67,65.05,495.66,63.84,494.06Z"/><path class="cls-10" d="M197.23,430c10.24.66,19.8-2.48,29.4-5.35a42.1,42.1,0,0,1,7.69-1.66c7.85-.82,10.09,4.69,10.47,10.19.25,3.63,0,7.29,0,10.94a8,8,0,0,0,0,5.93c-1.81,8.83-2.6,17.84-4.85,26.6-1.76,6.84-3.08,13.79-4.72,20.66-.85,3.54-.66,6.31,3.78,6.83l-2.16,2c-5.64,4-11.67,5.34-18.31,2.77-4-1.86-8.26-1.95-12.49-2.41-1.94-.21-4,.07-5.6-1.4-2.2-6.88-2-13.95-1.64-21l-.75-7.93c-2.5-6.42-1.46-13.17-1.72-19.78-.27-7,.37-14-.72-21C195.33,433.45,195.19,431.32,197.23,430Z"/><path class="cls-15" d="M115.2,492c-.52-3.41-2.45-6.45-2.33-10.06.11-3.37.89-6.17,4-7.88,2.48.28,4.09,3.66,7.1,2,1.73-1.19.94-3,1.19-4.59a2.58,2.58,0,0,1,1.67-2.27c1.25-.41,1.84.59,2.24,1.46,2.74,5.89,8.19,8.38,13.6,11,3.47,1.66,6.06,1,7.8-2.52a16.09,16.09,0,0,1,2-3.41c2.43-2.91,4.3-2.77,5.39.88s2.76,1.66,4.45,1c4.75-2.73,8.7-6.58,13.28-9.55,5.17,2.75,5.16,2.74,9.45-2.22,1.18-1.36,2.34-2.79,4.13-3.45a3.81,3.81,0,0,1,4.18,1.61,6.11,6.11,0,0,1,.68,2.36c-.31,4.56-.14,9.17-1.06,13.69l-.31,8.1a74.89,74.89,0,0,0,0,15.84c-.65,4.67-3.44,7.72-7.46,9.85a6.7,6.7,0,0,0-1.29.72c-17.13,14.67-33.73,9-50.23-1.25-.82-.51-1.73-.89-2.6-1.33A108.39,108.39,0,0,1,115.2,492Z"/><path class="cls-14" d="M188.81,463.17c-1.52,2-3,3.95-4.56,5.89-3.43,4.3-6.18,3.95-8.31-1.05-4.24-1-6.05,2.3-8.36,4.72-1.65,1.73-2.16,4.5-4.87,5.23-1.17,1.38-2.24,3.22-4.32,2.85-2.47-.44-1.14-2.69-1.49-4.14-.18-.76.17-1.8-.83-2.13-1.18-.39-1.88.57-2.38,1.37-1.05,1.69-1.92,3.49-2.86,5.25-1.26,2.35-3.42,3.74-5.78,2.68-7-3.17-14.89-5.5-17.58-14.19-3.8,1.35,2.93,7.71-3.71,7.52-4.24-.48-4.9-4.41-6.84-7.12-2.66-4.15-2.38-8.77-1.66-13.26a64.12,64.12,0,0,0,.73-8.73c-.58-5-1.35-10.06,1.4-14.77,3.23-1.66,5.37.45,7.39,2.35a64.78,64.78,0,0,0,10.43,8.48c10.44,6.35,21.67,7,33.23,4.24,6.47-1.54,10.16-5.83,11.15-12.54,1.22-8.34,1.15-16.93,5-24.78A71.39,71.39,0,0,1,192.83,398c.84-1,1.73-3.39,3.76-1.13,1,4.85-1.17,9.42-1.19,14.18,0,6.26,0,12.52-.1,18.78-.23,8.73-2.38,17.3-2.11,26.06a7.29,7.29,0,0,1-.37,1.6A24.4,24.4,0,0,1,188.81,463.17Z"/><path class="cls-16" d="M235.87,72.19l0,5a5.57,5.57,0,0,0,0,5c3.47,4,8.36,5.85,13,7.71,3.42,1.36,7.87-2.72,7.94-6.82.16-8.56-2.69-16.61-4.43-24.84a140.25,140.25,0,0,0-19.5-47.07c1.35-1.79,3-1.93,4.92-1,5.44,3.48,8.5,8.87,10.78,14.56,8.5,21.22,14.22,43.08,14.21,66.14A114.7,114.7,0,0,1,259.72,116a11.59,11.59,0,0,0,.81,7.64c5.29,12,10.87,23.88,19.33,34.1,2.87,3.47,3,6.19-1.94,7.7-2.1.64-2.2,1.84-1.26,3.77,2,4.11,5.11,7.35,7.76,11,3.45,4.7,3.3,5.2-2.15,6.67-6-4.19-10.7-9.83-15.66-15.15a3.57,3.57,0,0,1-.76-2.81c6.67-7.39,4.24-14.89-.23-22-10.36-16.39-18.69-34-30.82-49.31a6.58,6.58,0,0,1-1-1.69c-2.06-5.57-5.73-9.09-11.92-9.45,2.89-2.32,3.08-5.27,2-8.52-.15-2.31,1.08-3.75,3-4.75,3.17-1.6,2-3.68,0-4.86-5.83-3.41-7.14-8.3-5.5-14.43,1-3.67-2.13-4.77-4.12-6.57a3.13,3.13,0,0,1-2.13-1.93c-1.08-3.59,6.11-13.24,9.81-13.13a4.42,4.42,0,0,1,4.5,3.25c2.68,10.11,5.92,20.12,6.46,30.69A8.38,8.38,0,0,1,235.87,72.19Z"/><path class="cls-17" d="M265.85,168.9,279.24,183c1.13,1.2,2.54,2.18,3,3.88l-6.71,1.57c0,.31-.13.77,0,.88,9.44,7.41,6.9,12.34,1.43,19.62-.79,1-1.6,2.09-2.41,3.13-4.44-.44-8.39,1.65-12.59,2.48-11.27,2.23-20.09-.5-19.14-14.8.25-3.87-.68-7.56-1.41-11.28-.6-3.05,0-5.51,2.53-7.42,1.28-.95,3.43-1.78,2.57-3.7-1-2.21-3.06-1.05-4.77-.61a28.63,28.63,0,0,1-2.92.47,4.56,4.56,0,0,1-4.44.81c-7.64-5.94-15.14-12-21.46-19.44-1.49-1.73-3-3.63-2-6.22,12.5-7.91,24.43-4.18,36.21,1.81C254.39,157.82,259.7,163.9,265.85,168.9Z"/><path class="cls-12" d="M96,504.82c.66-9.07,3.12-17.84,4.42-26.81,1.38-9.45,3.77-18.72,4.65-28.29.91-9.92-3.82-16.35-11.21-21.73-7.61-5.54-15.8-10.47-21-18.66-3-4.74-5.53-9.85-9.79-13.69-1-.89-1.92-2.21-3.07-2.46-7.74-1.73-9.41-8.46-12.17-14.33-1.34-1.69-1.18-3.5-.43-5.36,1.81-2,3.44-.67,4.66.58,2.88,2.94,6,4.94,10.33,5.09,3.15.11,4.59,3,6,5.4,2.64,4.4,5,9,8.07,13.1a45.43,45.43,0,0,0,10.74,10.2,5.59,5.59,0,0,0,4.45.74c3.65-.94,6.5-5.35,11-2.58a4.8,4.8,0,0,1,.92,1c.89,3.09,3.76,3.61,6.19,4.71,1.16.63,2.29,1.33,3.44,2,6.23,3.54,6.87,5.28,4.45,12-2.48,5.12-2.43,10.76-3.26,16.2-.27,1.77-.09,3.61-1.28,5.13q-4.76,28.48-9.52,57c-.68,1.9-2.3,2.07-4,2.17C98.24,506.19,96.85,506.16,96,504.82Z"/><path class="cls-3" d="M189.87,543.86q-26.56-1.15-53.14-2.33c-10.26-.46-20.52-1-30.78-1.46.28-4.45,2.81-8.09,4.64-11.89s6-4.81,10-5.56c7.42-1.39,14.35-.9,20.3,4.47A19.05,19.05,0,0,0,154,532a7.8,7.8,0,0,0,5.89,0,42.52,42.52,0,0,0,21.09-8,10.46,10.46,0,0,1,3.83-2.12c4.64-1.08,6-.2,6.11,4.61,0,1.16,0,2.31,0,3.47-1.2,1.48.19,3.47-1,5C190.77,538,187.82,540.91,189.87,543.86Z"/><path class="cls-10" d="M317.81,473.07c-4.29.88-7.42,3.62-10.19,6.72-5.9,6.58-13.36,10.79-21.23,14.43-2.06.95-4.07,1.35-6.06-.23-1.46-1.16-1.35-2.5-.63-4,6.09-12.42,5.11-25.77,5.15-39a5.67,5.67,0,0,0,0-4.91c.5-2.06.9-4.15,1.54-6.17.38-1.17.19-3.15,1.8-3.18s2.06,2,2.41,3.32a26.69,26.69,0,0,1,1.21,9.24,9.77,9.77,0,0,0,.92,5.77,5.66,5.66,0,0,0,0,4.92c1.53.76,1.61.8,2.15-.29,2-4,3.68-8.29,7.48-10.91,4.47-3.09,9.35-5.67,10.33-11.77,3.49,7.74,2.05,15.51-.12,23.18-.83,2.95-1.31,4.24,2.74,3.35,4.49-1,6.21,1.42,4.54,5.63A37.08,37.08,0,0,1,317.81,473.07Z"/><path class="cls-17" d="M294,360.06c-5.61-17.15-8.52-34.68-7.15-52.77.08-1-.66-2.69.92-2.91,1-.14,2.19.63,3.08,1.29,3.36,2.47,4.84,6.2,6.44,9.87.44,1,.66,2.61,2,2.56s1.45-1.52,1.67-2.67.72-2.44,2-2.53,1.75,1.37,2.29,2.32c3.33,5.9,2.73,12.54,3.23,18.93.23,3,.37,4.69,3.74,2.65,2.33-1.41,3.21-.44,3.6,2,.72,4.47,1,8.89-.16,13.32-2.49,6.86-9.05,11.67-15.4,11.13C297.81,363,295.22,362.79,294,360.06Z"/><path class="cls-17" d="M201,505c6.14.2,12.33,0,18.11,2.65-.16.7-.68,1.09-2.36,2.07a43.06,43.06,0,0,1,6.07.24,30.6,30.6,0,0,0,5.41-.13c2.6-.27,5.27-.64,7.62,1.07,6.88,1.36,13.86,2.59,15.73,11.06a9.16,9.16,0,0,1,0,2,7.27,7.27,0,0,1-3.81,3c-6.8,3-13.47,6.19-20.34,9-4.21,1.7-8.74,3.61-12.91-.4-1.55-2.79-.6-5.88-1-8.81-.34-2.22-1.2-1.45-2-.22a48.43,48.43,0,0,1-6,7.92c-1.36,1.62-3,3.37-5.47,1.62-3.47-5.9-2.09-12.15-.9-18.2a54.34,54.34,0,0,0,.88-11.71A1,1,0,0,1,201,505Z"/><path class="cls-18" d="M79.94,504.12a5.89,5.89,0,0,1,4,.91c2.71,2.12,7.58.61,8.81,5.24-.49,5.5-4.62,8.23-8.63,10.77-5.43,3.43-11.6,5.69-16,10.7a4.43,4.43,0,0,1-3.68,1.12c-8.16-.28-15.94-2.71-23.88-4.23A4.65,4.65,0,0,1,38.17,527l-.06-2.91c1.33-2.22,1.52-4.88,2.76-7.13.75-5.83,5.11-7.18,9.91-7.87,8.26-1.2,16.46-.34,24.65.81,1.13.16,2.79,1.22,3.47-.52.52-1.34-1.18-1.75-1.83-2.62C76.73,504.42,78.67,504.65,79.94,504.12Z"/><path class="cls-14" d="M38.17,527c8.53,1,16.66,4.24,25.35,4.54,1.75.06,3.24.51,4.41-1.08,3.19-4.32,8-6.28,12.52-8.72,5-2.68,9.89-5.58,11.62-11.6,2.41-1.94,5.79-2.31,7.86-4.8l3.66-1.22c-1.39,8.18.06,16.52-1.48,24.74-.9,4.77-3.47,7-8,7.14a154.29,154.29,0,0,0-20.24,1.87,20.58,20.58,0,0,1-10.78-.91c-3.21-1.25-6.42-1.6-9.53.31-.88.54-2.31,1.25-2.7.48-2.76-5.48-8.64-2.71-12.41-5C37.14,531.9,37.94,528.94,38.17,527Z"/><path class="cls-10" d="M30.16,487c-4.65-10.91-3-22-1.09-33.16.95-5.54,4.36-9.93,7.18-14.57a2.75,2.75,0,0,1,3.52-1c1.6.57,2.56,1.9,1.94,3.5-.92,2.38.19,4.07,1.21,6,2.89,5.43,3.5,11.3,2.91,17.34-2.42,5.58-3.85,11.59-7,16.84C36.82,485.12,34.55,487.9,30.16,487Z"/><path class="cls-19" d="M48.26,373.07l-.48,5.79c-2.16,8.44-.46,16.84.73,25.13,2.6,18,5.72,36,8.63,53.94a12.29,12.29,0,0,1,.25,4.79c-.08,1.39-.73,2.14-2.2,1.28-4.38-11.08-5.45-22.86-7.09-34.49-1.8-12.8-4.41-25.48-5.56-38.38-.86-9.65-.33-19.29-.76-28.92a7.84,7.84,0,0,1-.24-3.87c.2-1.57-1.13-4,1.41-4.47,2.14-.36,2.64,2,3.43,3.54a9.8,9.8,0,0,1,.48,1.38C47.23,363.56,50.06,368.09,48.26,373.07Z"/><path class="cls-12" d="M30.16,487c6.85-1.62,8.66-7.46,11-13,1.31-3.11,1.09-7.06,4.69-9,4.72,11.51,8.5,23.25,9,35.82-2.49,2.28-5,.58-7.45-.08-3.38-.92-6.28-2.91-9.23-4.75-1.64-1.07-3.53-1.92-4-4.14C34.06,489.28,29.5,490.28,30.16,487Z"/><path class="cls-17" d="M34.15,491.93l3.93,2.87c2.78,4.76,1.81,7.47-3.56,8.37a13.37,13.37,0,0,0-9.74,6.71c-3.34,5.31-6.24,6.45-10.85,5.22l-.1,0c-1.8-2.76-1-5.7-.56-8.59.36-2.28,0-3.64-2.74-2.74-1.22-.11-2.76.23-2.6-1.83,2.57-8.12,9.49-11.51,19.65-9.58C29.84,492.82,32.09,493.86,34.15,491.93Z"/><path class="cls-14" d="M13.93,515.1c5.16.09,8.31-2.89,10.43-7.13a10.17,10.17,0,0,1,8.09-5.81c6.52-1,6.65-1.2,5.63-7.35,5.31,2.74,10.29,6.41,16.72,6.09,0,2.46-1.77,2.75-3.61,3.18-7.69,1.8-13.62,5.78-16.26,13.6-.79,2.34-2,2.89-4,1.35-1.73-1.87-1.09-4.37-1.58-6.12-.18,1.82.53,4.23-1.7,5.91-2.78.27-5.58.92-8.32.7A6,6,0,0,1,13.93,515.1Z"/><path class="cls-20" d="M215,534.88c4.51,3.23,8.85,1.16,13.07-.62,7.9-3.34,15.71-6.88,23.56-10.33,2.88,7,1,13.17-5,16-3.63,1.7-7,1.63-10-1.48-1.09-1.17-2.4-2.31-3.71-.72-5.37,6.54-11.65,4.5-18,2.15C213.57,538.19,213.35,536.52,215,534.88Z"/><path class="cls-14" d="M314.67,362.09c-.25,11.37-5.07,20.63-13.27,29a44.11,44.11,0,0,1-5.51-21.05C302.75,368.84,308.14,364.12,314.67,362.09Z"/><path class="cls-21" d="M237.8,10.21l-4.92,1c-5,.41-8.16,4-11.29,7.09A212,212,0,0,0,201.7,40.41c-2.6,3.39-5.19,7-9.88,7.78,7.77-16.06,20.26-28,34.21-38.5C229.75,6.88,234,7,237.8,10.21Z"/><path class="cls-22" d="M192.08,457.1c-1.34-9.14,1.5-18,1.81-27a2.19,2.19,0,0,1,3,0l.31-.07q.74,21.18,1.45,42.35c0,1.27.47,2.67-.61,3.79-3.5-1.06-4,1.69-5,3.89-.12-4.67-1.18-9.32-.09-14C195.27,462.78,193.34,460,192.08,457.1Z"/><path class="cls-23" d="M126.11,513A12.06,12.06,0,0,1,112,516c-2.43-1.14-2.34-3.12-2-5A93.83,93.83,0,0,0,111,495.21c1.8-1.77,3.48-.74,4.69.58,4.34,4.74,7.35,10.4,10.73,15.81C126.64,512,126.31,512.55,126.11,513Z"/><path class="cls-24" d="M314.67,362.09c-5.78,3.79-11,8.9-18.78,8a14.86,14.86,0,0,1-1.94-10c9.3,4,13.89,2.32,21.73-7.95C315.9,355.49,316.39,358.9,314.67,362.09Z"/><path class="cls-25" d="M126.11,513c-3.48-5.2-6.91-10.44-10.49-15.57-1-1.47-2.44-2.82-4.62-2.23a4.41,4.41,0,0,1,4.19-3.23,122.35,122.35,0,0,1,15.91,19.95C129.39,512.05,127.62,511.91,126.11,513Z"/><path class="cls-26" d="M263.77,344.53q5.06-11.22,10.12-22.45c1.93.13,4.2-.44,4.84,2.35-3.68,2-4.08,6.09-6,9.24C270.32,337.73,269.57,343.25,263.77,344.53Z"/><path class="cls-27" d="M55.19,464c3.38-1.15,1-4.14,2-6.07.53,9.23,6.44,17.29,5.88,26.76-.11,1.79.34,3.66-.67,5.34C58.85,481.66,57,472.84,55.19,464Z"/><path class="cls-28" d="M45.82,359.13c-1.5-1.2-.57-4.05-3.61-4.73-.15,2.7-.29,5.26-.43,7.81-1.87-5.1-.49-10.34-.54-15.51,0-2.69,3.49-1,4.58-2.7a42.57,42.57,0,0,1,2.92,15.09A2.09,2.09,0,0,1,45.82,359.13Z"/><path class="cls-29" d="M113.11,447.1c.17-7.62-.23-15.33,3.75-22.31,3.9,2.19,2.64,5.23,1.36,8.28-2.25,4.77.14,10.24-2.23,15Z"/><path class="cls-30" d="M200,536c4.17.2,5.13-3.56,7.22-5.91,1.2-1.34,2.33-2.75,3.49-4.14,2.61,4.65,2.46,9.31.06,14C206.7,540,202.31,540.91,200,536Z"/><path class="cls-31" d="M210.81,539.91l-.06-14c.09-1.78.46-3.52,2.74-3.18,1.73.26,1.48,1.93,1.5,3.22,0,3,0,5.94,0,8.91,0,1.67,0,3.33-.08,5Z"/><path class="cls-32" d="M235.88,510.91H212.93c1.43-2.66,4-2.61,6.21-3.25,6.24,3.29,11.86-.58,17.72-1.55A7.45,7.45,0,0,0,235.88,510.91Z"/><path class="cls-33" d="M191.86,48.13c1.89,6.78-2.87,10.22-7,14-2.26-2.68.13-4.69,1.18-6.69C187.48,52.66,189,49.86,191.86,48.13Z"/><path class="cls-34" d="M7.93,502c.74,1.06,1.84,1,2.93,1,2.76,4.25,1,8.17-.86,12.09-2.77,1.85-3.21-.79-3.6-2.21C5.37,509.06,5.22,505.27,7.93,502Z"/><path class="cls-35" d="M201,505l-1,1.06c-3.54-3.39-2.33-8-3.1-12.09,1.15-1.48-.21-3.44,1-4.91.25-1.69-.68-3.6.94-5Q199.93,494.53,201,505Z"/><path class="cls-36" d="M10,515c-.55-4.09,1.57-8,.86-12.09,1-1,1.85-2.75,3.53-1.65,1.2.79.56,2.4.45,3.65-.29,3.4-.66,6.8-1,10.2Z"/><path class="cls-37" d="M79.94,504.12l-2.87,2.6c-3.94-1.45-9-.71-11.14-5.68a1.52,1.52,0,0,1,.06-2.12Z"/><path class="cls-7" d="M34.78,316.11c.67,4.37-.52,9.06,2.19,13.09-3.81,0-5.9-2.82-4.81-6.92A44.25,44.25,0,0,1,34.78,316.11Z"/><path class="cls-38" d="M253.81,513.16c4.09,2,5.25,5.47,5.11,9.67a.74.74,0,0,1-.13,1.23C255.17,521.32,254.43,517.27,253.81,513.16Z"/><path class="cls-39" d="M258.76,480c1,5.06-1.82,9-3.83,13.23C254.38,488.31,256,484,258.76,480Z"/><path class="cls-40" d="M116.92,470.05l6.84,7.12c-3.43,1.48-5.22-.65-6.85-3.13C116.91,472.71,116.92,471.38,116.92,470.05Z"/><path class="cls-41" d="M27.68,518.82c.44-2.49-.6-5.35,1.86-7.57,2.8,2.25,1.18,5.2,1.42,7.78Z"/><path class="cls-42" d="M253.77,498c.95,3.67-1.54,6.59-2.17,9.92C250.46,504.24,249.49,500.56,253.77,498Z"/><path class="cls-43" d="M192.68,503.94a32.18,32.18,0,0,1,0-15.84Q192.7,496,192.68,503.94Z"/><path class="cls-44" d="M40.87,516.92c.39,2.88.28,5.57-2.76,7.13A5.76,5.76,0,0,1,40.87,516.92Z"/><path class="cls-45" d="M258.79,524.06c0-.41.09-.82.13-1.23a19.42,19.42,0,0,0,11-.73c-.22,2.29-2.19,2.25-3.62,2.32A66.83,66.83,0,0,1,258.79,524.06Z"/><path class="cls-46" d="M44.86,328.1q0,6.5,0,13A19,19,0,0,1,44.86,328.1Z"/><path class="cls-47" d="M66,498.92,65.93,501a14,14,0,0,1-2.09-7C65.73,495.16,66,497,66,498.92Z"/><path class="cls-9" d="M159.84,532.05a4.46,4.46,0,0,1-5.89,0Z"/><path class="cls-48" d="M197.88,489.07c-.26,1.65.65,3.52-1,4.91C197.09,492.31,196.19,490.44,197.88,489.07Z"/><path class="cls-48" d="M189.88,535c.25-1.67-.69-3.57,1-5C190.64,531.72,191.56,533.62,189.88,535Z"/><path class="cls-13" d="M36,34.24C28.59,40.09,26.22,48.56,24,57.1c-3,11.73-5.11,23.53-3.22,35.75.48,3.06-.06,6.28-.13,9.43-2.11,2.64-1.93-.09-2.49-1.06a120.24,120.24,0,0,1,6.86-61.87c1.24-3.2,2.23-6.66,5.95-8.06C32.85,32,34.79,32.45,36,34.24Z"/><path class="cls-49" d="M80.16,54.52c-1.84,1.44-3.77.42-5.06-.5-8.72-6.24-18.64-10.45-27.39-16.61.92-1.67,2.68-1.56,4.19-2C62.43,40.15,72.93,44.92,80.16,54.52Z"/><path class="cls-50" d="M51.9,35.43c-.86,1.8-2.58,1.78-4.19,2L36,34.24c-2-.47-4-.87-5-3C38.86,28.15,45.38,31.8,51.9,35.43Z"/><path class="cls-51" d="M18.19,101.22c.79.45,1,2.21,2.49,1.06,1.74,5.8,2.14,11.84,3.07,17.78.18,1.15.3,2.29-.67,3.19C17.33,116.82,18.16,108.93,18.19,101.22Z"/><path class="cls-17" d="M141.94,247.26c-5.7-3.33-11.43-6.61-16.4-11-2-1.76-2.53-.46-2.61,1.42s.91,3.49,2,5c2.73,3.76,5.58,7.44,8.16,11.3,2.21,3.31,4,6.74,4,11,0,5.55-2.53,9.1-7.39,11.26-8.75,3.9-17.71,3.51-26.79,1.38a105.73,105.73,0,0,1-19.36-6.28,10.84,10.84,0,0,0-6.77-1c-2.39.16-3.92-1.57-5.66-2.71-2-1.32-4-2.28-6.45-2.05-1.52-.47-2.06-1.74-2.55-3.06-.14-2.71-2.94-3.53-4-5.6-7.25-10.13-16-19.08-23.32-29.15-6.47-8.83-6.68-11.06,1.19-19-2.13-1.63-5.51.18-7-2.52,12.39-6.56,21-17.64,31.72-26.27,11.78-9.51,24.74-16,40.35-15.69a30.22,30.22,0,0,1,4.45.44c8.43,1.48,10.92-.07,13.34-8.4-.17-1.81-.43-3.64,1.31-4.95a4.6,4.6,0,0,0,.64,0,6,6,0,0,0,4.14-1.16l.1-.21c3-3.65,6.61-6.65,10.09-9.79l.89-.87a5.11,5.11,0,0,1,2.35-1.8c12.87-3.31,25.72-6.87,39.14-3,2.81,1.18,5.67,2.28,8.39,3.67,4.3,1.47,6.32,6.34,10.94,7.35a2.19,2.19,0,0,1,1.07,1.79c1.36,4.16,3.18,7.9,8,9a2.23,2.23,0,0,1,1.86,1.48c1.8,7.27,5.92,13.14,11,18.44a3.71,3.71,0,0,1-.57,3c-8,2.88-15,0-21.38-4.35-6.11-4.23-10.73-10.19-15.7-15.69-.74-2.44-.39-5-.51-7.44-.27-5.73-2.7-8.54-8.43-8-4.87.43-9.6,0-14.39-.27s-9,1-11.28,5.71-.74,8.71,2.37,12.41c1.28,1.53,2.49,3.12,3.69,4.72,1.59,2.19,2.25,4.79,3.07,7.3,1.91,5.83.64,10.36-4.34,14s-10.11,6.89-15.2,10.27c-11.46,3.26-22.32,3.16-31-6.45-3.36-3.71-5.74-1.34-8.39.65-5,3.12-10.81,1.83-16.94,2.75,3.62,3,6.88,2.9,10.32,2,2.73-.75,5.07-2.4,7.74-3.26,3.49-.38,5.08,2.1,6.44,4.56,10.65,19.39,25,35.06,45.17,44.8,1.07.52,2,1.15,2,2.56a3.64,3.64,0,0,1-2.81,2.69C146.25,248.58,144,248.81,141.94,247.26Z"/><path class="cls-18" d="M62.73,261.78l2.14,3.33c1.64,3.05,4.54,5.14,6.17,8.21a19.1,19.1,0,0,0,5.8,9.71c13.74,13.44,29.6,21.82,49.47,20.77,4.47-.23,9,0,13.46,0,9.87-.14,18.12,3.75,25.22,10.26,1.95,1.8,4.58,3.71,2.83,7.14-9.19-2.36-18.56-4.08-28-2.88a144,144,0,0,1-21.35.78c-27.58-.6-52.42-15.15-61.48-43.28-.82-2.55-1.67-5.15-4.9-5.64.39-2,1.45-3.89.83-6a.59.59,0,0,0,.14-.78A2.73,2.73,0,0,1,57,261.58C58.91,262.31,60.81,261.66,62.73,261.78Z"/><path class="cls-14" d="M43.78,150.1,43,151.18A64.63,64.63,0,0,0,39.8,162.1c-1,10.57-4.79,20.41-8.13,30.34-.66,2-2.15,3.78-4.74,3.71C31.13,183,32.71,169.16,37,156c.74-2.25,1.82-4.65-2-5,2-3.72,2.33-8.17,5.16-11.49A12.77,12.77,0,0,1,46,135.2c2.63,3.63,0,6.75-1,10l0,0C43.79,146.61,43.78,148.35,43.78,150.1Z"/><path class="cls-52" d="M62.73,261.78c-1.48,1.68-3.2,2.35-5.29,1.14-1.58-.92-3.07-1.36-4.38.41-.14-3.57,3.5-4.21,5-6.46C60,258.2,63.39,258.07,62.73,261.78Z"/><path class="cls-53" d="M27,196.1c.19,2.2-.28,3.93-2.92,4.13A4.65,4.65,0,0,1,27,196.1Z"/><path class="cls-16" d="M49.06,112.14c-10.25-2.62-14.84-10.08-17.55-19.64-3.44-12.16-3.85-24.09.85-36,2.7-6.82,6.88-8.54,13.33-4.9C55.86,57.39,62.85,65.81,66.1,77.42c-2.21.09-2.7-1.86-4.14-2.22a7.67,7.67,0,0,0-6,0c-1.41.81-2.83,2.18-.88,3.26,4,2.2,3.66,6.25,5,9.62A4.38,4.38,0,0,1,58,90a10.91,10.91,0,0,1-1.34.63c-7.54,3-7.61,3.34-2.41,9.66C58.77,105.86,57.19,109.47,49.06,112.14Z"/><path class="cls-54" d="M120.11,151.33c-.09,1.74.29,3.61-1.31,4.95-9.39-4.23-18.8-6.54-28.39-.51a2.13,2.13,0,0,1-1.84.11c-1-.58-.21-1.35,0-2.11,1.92-6.84,6.06-11.28,13.28-12.37,6.87-1,12.33,1.28,16.25,7.1C118.74,149.46,119.43,150.38,120.11,151.33Z"/><path class="cls-19" d="M217.93,176.23c-7.56-4.45-9.2-12.51-12.1-19.81,1.42-1.74,2.68-3.68,5.16-4.07,2.69,8.66,10.71,12.61,16.52,18.47,2.06,2.08,4.43,3.89,6.36,6.15-3.45,2.86-7.4,1.42-11.2,1.31A9.8,9.8,0,0,1,217.93,176.23Z"/><path class="cls-55" d="M197.86,147.39l-1.23-1.08c-1.75-3.95-.73-7.58,1.3-11.1,2.81-2,5.55-4.08,8.91-5.21,7.39-2.47,13.32.15,17.06,8.23C213.48,136.81,204.93,140.16,197.86,147.39Z"/><path class="cls-56" d="M217.23,47.35c6.05,1.15,6.41,1.69,5.09,7.87-1.27,5.93-.16,8.7,5.15,11.87,1.87,1.12,3.3,2.43,2.93,4.62-.33,1.89-1.22,3.77-3.56,1.5-.64-4.63-3.89-3-6.48-2.58-1.93.35-3.85,1.52-5.46-.49s-.26-3.8.47-5.58c.95-2.3,2.33-4.44,3.09-6.79,1.65-5.1,1-5.72-4.36-4.92C215.12,50.87,217.25,49.67,217.23,47.35Z"/><path class="cls-57" d="M49.06,112.14c.07-.15.09-.37.21-.44,8.38-5.27,8.44-5.68,1.85-13-3.58-3.94-3.13-6.14,1.73-8.07C54.53,90,56.3,89.56,58,89c2.85-.24,3.12.91,1.61,3-1.77.16-3.89-.18-4.62,2-.68,2,.7,3.55,2,4.73,2.72,2.37,5.62,4.54,8.94,7.18C60.31,108.37,56.22,114.07,49.06,112.14Z"/><path class="cls-58" d="M197.93,135.21q-.65,5.55-1.3,11.1a6.17,6.17,0,0,1-5.79-2.94,13.57,13.57,0,0,0-4.82-3.9c-2.94-5.25-7.57-7.41-13.42-7.29a2.37,2.37,0,0,1-1.7-1.19c7.21-1.34,14.33-1.86,21,2.17C193.74,134.27,195.64,135.37,197.93,135.21Z"/><path class="cls-59" d="M170.9,131l2,.31c1.95,1.25,6,.22,5,4.68-13-3.86-25.56-1.07-38.09,2.45-1.26.36-2.56.61-3.84.92-.25-4.39,3.19-4.54,6-4.92C151.61,133.16,161.26,132.12,170.9,131Z"/><path class="cls-60" d="M82.91,124.13c1.58-1.42,3.3-2.73,4.72-4.29,6.29-6.93,13.74-9.37,23.44-6-9,5-20,4.46-27,12.42C82.25,126.31,82.3,125.37,82.91,124.13Z"/><path class="cls-61" d="M45,145.23l1-10c2.9-3.85,4-8.83,7.58-12.26a19.94,19.94,0,0,1,4.62-3.54C54.26,128.36,52.17,138.1,45,145.23Z"/><path class="cls-62" d="M196.67,104.16c8.3-4.83,17.08-3.82,21.92,2C211.46,105.35,204.68,104,196.67,104.16Z"/><path class="cls-63" d="M223.83,78c4,1.58,1.4,4.83,1.55,7.22.12,2-2.34.75-3.54,1.3-3.67-1.46-3.93-3.47-1-6C221.87,79.65,222.85,78.8,223.83,78Z"/><path class="cls-64" d="M135.08,140.22c-1.71,5-6.07,7.2-10.09,9.79C127.18,142,128.58,140.6,135.08,140.22Z"/><path class="cls-65" d="M39.8,162.1A11.6,11.6,0,0,1,43,151.18C43.55,155.29,42.09,158.82,39.8,162.1Z"/><path class="cls-66" d="M59.64,92c.4-1.51.58-2.89-1.61-3l2-.92c.28.16.66.26.83.5.9,1.24,4.07-.35,3.45,2.19C63.8,92.9,61.37,92.08,59.64,92Z"/><path class="cls-67" d="M82.91,124.13A2.25,2.25,0,0,0,84,126.29c-.87.87-1.44,3.31-3,1.71C79.22,126.09,81.5,125.08,82.91,124.13Z"/><path class="cls-68" d="M124.89,150.22c-1,1.76-1.9,3.82-4.13,1.16C121.81,149.84,123.46,150.43,124.89,150.22Z"/><path class="cls-65" d="M43.78,150.1c-1.54-2.14-.94-3.73,1.26-4.91C44.94,146.91,45.19,148.71,43.78,150.1Z"/><path class="cls-69" d="M56,75.21a4.53,4.53,0,0,1,6,0Z"/><path class="cls-70" d="M235.87,72.19v-6A4.53,4.53,0,0,1,235.87,72.19Z"/><path class="cls-71" d="M235.84,82.21a3.42,3.42,0,0,1,0-5Z"/><path class="cls-19" d="M118.22,433.07c-1-2.67.9-5.82-1.36-8.28,2-6.17,1.64-6.94-4.28-9.85-1.46-.72-3.06-1.27-4-2.81a29.68,29.68,0,0,1-5.69-5.1l0,.06c-2-2.21-3.23-5-5-7.37-.79-1.07-1.85-2.16-3.32-1.62s-1.53,2.12-1.31,3.41c.51,3,.76,5.92-1.34,8.5-1.88.08-3.89.8-5.33-1.16-.4-1.05-.67-2.07.45-2.89,3-3.08,1.62-6.88,1.65-10.43,0-5.86,0-11.72,0-18.4,4.14,2.9,6,6.43,8.27,9.59,5.3,7.51,12.4,12.88,20.18,17.41,8.29,4.83,9.88,4.25,14.26-4.84,2.67,5.33,5.1,10.3,7.64,15.21,3.69,7.13,5.39,7.71,11.32,2.74,10.51-8.83,18.72-19.62,25.59-31.46.68-1.16.79-3.47,2.72-2.92,1.7.5,1,2.57,1.12,4,0,.33,0,.66,0,1,.24,7.81,1.61,8.64,8.43,5,3.51-1.88,7-3.85,10.45-5.78a3.37,3.37,0,0,1,2.1,2.07c0,3.55-1,6.31-5.05,6.93-9.65,10.85-14.27,23.69-14.77,38.07-.45,13.06-9.83,15.93-19.42,16.88-14.86,1.48-27.5-3.24-37.58-14.36C122.42,434.81,120.25,434.13,118.22,433.07Z"/><path class="cls-19" d="M167.82,321.16c-3.14-9.09-11.07-12.41-19.11-14.9s-16.84-1.16-25.27-1.07c-17.07.17-31.23-6.45-43.56-17.67-4.45-4-9.86-7.54-9.79-14.64,3.64-.63,6,1.1,7.68,4.12L97,285.14a112,112,0,0,0,35.94,9,17.27,17.27,0,0,0,9,0c12.2.85,23.89,2.95,33.82,11.09,4.44,3.63,10.17,4.61,15.91,4.91,6.44.34,12.88-.51,19.35.75,14.71,2.87,20.93,13.15,21.84,26.27.23,3.31.06,6.65.07,10-3.58,11-11.33,18.37-21.13,23.91,1.37-8.24,6.22-15.32,7.77-23.49.92-4.85-1.17-8.23-5.89-8.32C196.1,338.86,181.51,331.21,167.82,321.16Z"/><path class="cls-72" d="M87.13,406c-.15,1-.29,1.93-.44,2.89C78,403.75,73,395.63,68.41,387.1,66.15,382.88,64,378.85,58,380c-2,.39-3.19-1.45-4.52-2.68-1.66-1.53-2.67-3.88-5.27-4.25l-2.43-13.94,2.92,0c1.76,5.91,4.08,11.5,8.55,15.89,2.28-1.29,1.42-3.49,2.15-5.09.65-1.41,1.33-2.68,3.14-2.78s2.71,1.26,3.09,2.71C69.38,383.92,78.36,394.88,87.13,406Z"/><path class="cls-73" d="M241.87,374.26c2.07-4.16,4-8.38,6.24-12.48a75.36,75.36,0,0,0,8.66-29.37c3.83,3.78,4.3,8.08,4.82,12.35-2.69,3.28-3.5,7.38-4.92,11.23C253.82,363.73,250.1,370.85,241.87,374.26Z"/><path class="cls-74" d="M195.85,396.06c2.57-1.67,3.81-4.3,5.05-6.93,3.77,4.15,1.26,9.2,2,13.79-4.28-.53-6.46,1.78-5.8,5.64,1.22,7.22.5,14.33-.17,21.48l-3,0A167.63,167.63,0,0,1,195.85,396.06Z"/><path class="cls-75" d="M220.8,386c2.43-8.6,8.77-15,13-22.81,1.72,6-1.72,12.24.9,18.09-5.71.05-9.37,4.26-13.85,6.83A1.56,1.56,0,0,1,220.8,386Z"/><path class="cls-76" d="M220.8,386l.09,2.11c-2.11,6.22-5.52,11-12.74,11.68C211.7,394.57,216.53,390.54,220.8,386Z"/><path class="cls-77" d="M244.81,450a4.54,4.54,0,0,1,0-5.93Z"/><path class="cls-77" d="M292.78,460a3.37,3.37,0,0,1,0-4.92C292.77,456.73,292.77,458.37,292.78,460Z"/><path class="cls-78" d="M284.88,446.11a3.35,3.35,0,0,1,0,4.91Z"/><path class="cls-79" d="M217.93,176.23c1.44-.29,2.92-.7,4,.86,1.47,1.75.89,3.52.09,5.31-3.89,19.73-11.07,37.88-25.33,52.63-2.06-.15-2-1.93-2.48-3.27,2.08-10.47-1.7-18.17-10.93-23.39-4-2.26-7.9-2.83-11.54.41-2.55,2.27-4.94,2.24-7.66.46a11.92,11.92,0,0,0-6.16-1.79c-9-.42-12.61,5.07-8.52,13.06.38.74.82,1.45,1.14,2.21a20.26,20.26,0,0,0,4.19,8.76c3.34,4.57,8.09,7.1,13.19,9.14,2.87,1.57,6,1,9.08,1.24,2.31.19,5.08-.27,5.82,3l-4.91,2.31a70.54,70.54,0,0,1-26.93-2.13c-21.62-9.71-36.7-26.19-48-46.52-1.13-2-2.15-4.21-4.94-4.36-1.39-.46-2.38-1.18-1.94-2.87,5.76-5.32,5.82-5.38,11.22.54,6.8,7.46,15.48,7.08,24.34,6a43.8,43.8,0,0,0,4.35-.94c8.47-2,15.77-5.81,21.55-12.56,5.6-6.53,5.31-10.29-1.79-14.85-1.26-.81-2.54-1.57-3.75-2.44a61.67,61.67,0,0,1-5.7-6.21c-5.58-8-1-18,8.74-18.68,6.39-.46,12.82.45,19.27.42,5.44,0,7.5,2.84,7.62,8.41.06,2.66-.09,5.32-.15,8-1.14,4-4.55,6-7.62,8.17-6.43,4.62-7,7.51-2.35,14,6,8.34,14.17,11.62,24.26,10.15,2.14-.31,4.3-.34,6.43-.66,7.18-1.1,11.82-5.53,15.29-11.53Z"/><path class="cls-14" d="M199.91,241.23c4.1-5.1,7.88-10.49,13.61-14.74,2,13.42-4.45,22.75-13.77,29.86-10,7.64-21.45,11.11-33.87,5,1.3-1.77,3.26-1.34,5-1.44,11.12-.66,20.37-5.34,28.36-12.92C201.19,245.12,201.31,243.32,199.91,241.23Z"/><path class="cls-80" d="M199.91,241.23c4.35,1.17,3.76,3.42,1.2,5.92-9.79,9.57-21.39,14.66-35.23,14.16l-17-5.18c-1.09-2.89,1.27-2.92,2.89-3.27a23.6,23.6,0,0,1,6.87-.06c4.63,1.37,9.71-.21,14.19,2.14C184,254.65,192.23,248.44,199.91,241.23Z"/><path class="cls-81" d="M172.86,254.94c-4.7.54-9.37.8-13.91-1a20.93,20.93,0,0,0-6.26-3c-1.82-.64-4-1.11-3.87-3.79a3.71,3.71,0,0,0,2.12-2.15,191.07,191.07,0,0,1,26.93,2.13C177.44,250.58,172.6,251.11,172.86,254.94Z"/><path class="cls-25" d="M182.78,244.89c-2.12-2.13-4.83-1.72-7.44-1.76-2.93,0-6,.53-8.48-1.7.59-1.36,1.86-1.63,3.09-2,7.51,1.08,14.54.43,20-5.65,1.4-1,2.75-2.26,4.72-1.71,1.41.48.86,2.24,1.94,2.94A22.37,22.37,0,0,1,182.78,244.89Z"/><path class="cls-20" d="M148.82,247.22c1.34,1.9,3.29,2.58,5.49,3s4.25,1.09,4.64,3.77c-2.11,0-4.22-.05-6.33,0-1.59.05-3.43-.21-3.71,2.15-4.12-1.55-6.91-4.13-7-8.87Z"/><path class="cls-82" d="M77.77,277l-7.68-4.12c-2.09-2.36-6.41-3.21-5.22-7.77,1.63-1.93,3.19-.88,4.7.16,2.41,1.65,4.79,3.34,7.18,5C77.38,272.48,79,274.53,77.77,277Z"/><path class="cls-83" d="M222,182.4l-.09-5.31,12-.12,5,.23c-1.27,5.16-5.46,4.77-9.3,4.71C227,181.87,224.42,180.76,222,182.4Z"/><path class="cls-84" d="M141.9,294.12a9.06,9.06,0,0,1-9,0Z"/><path class="cls-85" d="M99.93,505.3c-.87,4.46-4.47,4.47-7.86,4.8-1.68-3.35-6.69-1.34-8.13-5.07l12-.21Z"/><path class="cls-86" d="M162.71,478c2.34-3.56,4.52-7.25,7.71-10.16,1.89-1.73,3.8-2.89,5.52.21.09,2.29,0,4.33-3.25,4-2.36-.26-3.15,1.74-4.54,3.08S166.09,480,162.71,478Z"/><path class="cls-1" d="M192.08,457.1c3.44,2.66,5.36,5.47.87,8.91l-.18-1.8c-.86-2-2.34-3.94-1-6.3A1.7,1.7,0,0,1,192.08,457.1Z"/><path class="cls-87" d="M191.81,457.91c.37,2.1,1.54,4.06,1,6.3a5.22,5.22,0,0,0-4-1C188.28,460.54,189.67,459,191.81,457.91Z"/><path class="cls-88" d="M92,410c1-3.42,0-6.83-.06-10.24,0-1.36.1-2.76,1.5-3.42a3.48,3.48,0,0,1,4.07.92,21.11,21.11,0,0,1,5.45,9.82C98.28,404.18,95.63,408.89,92,410Z"/><path class="cls-89" d="M102.93,407c3,.42,4.48,2.64,5.7,5.1C105.5,411.8,102.73,411.07,102.93,407Z"/><path class="cls-13" d="M217.72,179.11c-1,6.32-5.32,9.89-10.89,11.59-7,2.12-14.23,3.11-21.51,1.41-8.57-2-14.13-7.46-17.46-15.44-1.51-3.64-.51-6.56,2.75-8.53,4.16-2.51,7.51-5.95,11.1-9.12,4.26,3.44,7.7,7.7,11.54,11.56C199.89,177.29,208.24,180.06,217.72,179.11Z"/><path class="cls-30" d="M151.93,167.1c3.15.12,5.63,1.84,7.92,3.67,3,2.43,4.14,5.7,2,9.22-5.88,9.83-13.73,16.79-26,17,3.63-3.44,8-5.79,12.13-8.55,7.63-5.12,8.6-8.1,5.62-16.64C153.12,170.2,152.51,168.65,151.93,167.1Z"/><path class="cls-90" d="M96,191.32c.64,1,1.29,1.91,1.94,2.87-8.57,5.77-14.78,6-21.1.6C82.91,191.29,90.11,194.66,96,191.32Z"/><path class="cls-91" d="M177.9,136c-.18-3.13-3.59-2.82-5-4.68,7.45-.47,12.54,2.71,13.09,8.16Z"/><path class="cls-92" d="M194.71,232.09l-3.77,2.07c-5.74.43-10.41-2.47-14.06-6.06-7-6.84-14.37-8.88-23.35-4.91-1.19.53-2.49,1-3.72,0-4.66-6.19-5.11-9.83-1.69-13.69,3.69-4.18,10.63-5,16.41-1.36,2.69,1.69,4.29,1.82,6.59-.55a8.06,8.06,0,0,1,9.21-1.92C190.11,209.9,199.5,217.71,194.71,232.09Z"/><path class="cls-93" d="M149.81,223.16c3.82-.91,7.26-2.89,11.3-3.33,5.15-.56,9.67.84,13,4.31,4.78,4.94,10.64,7.63,16.81,10-5.56,7-12.72,8.32-20.94,6-2.18-.28-3.3-2.13-4.86-3.32-3.37-2.57-7-4.49-11.29-4.84A10.57,10.57,0,0,1,149.81,223.16Z"/><path class="cls-94" d="M153.85,232c4.62-2.38,7.55,1.23,10.94,3.13a15.85,15.85,0,0,1,5.21,5c-.8,1-2,1.12-3.14,1.32C161.65,239.46,156.89,236.89,153.85,232Z"/></g></g></svg>