<svg xmlns="http://www.w3.org/2000/svg" viewBox="0 0 1313.5 1237.55"><defs><style>.cls-1,.cls-2,.cls-3{fill:#fff;stroke:#1d1d1b;stroke-miterlimit:10;strokeWidth:8px;}.cls-2{font-size:1098.96px;font-family:BellMTItalic, Bell MT;}.cls-3{font-size:176.56px;font-family:HarlowSolid, Harlow Solid Italic;}</style></defs><g id="Capa_2" data-name="Capa 2"><g id="Capa_1-2" data-name="Capa 1"><path class="cls-1" d="M726.23,846.55c-109.48,16.67-244.86-130.25-324-207.91Q223.7,463.34,181.41,435.44a174.49,174.49,0,0,0-76.1-28.21q-40.78-4.91-67.59,22.83Q20.5,447.8,10.39,441.13q-12-7.9-1.48-20.14L102,318.46,239.66,150.25Q329.59,45.64,432.3,27.88t194.78,43Q728,137.44,741.56,250.38T628.25,511a726,726,0,0,1-96.38,92.55C662,737.61,873.6,806.57,880.33,811,889.59,817.11,776.37,838.92,726.23,846.55ZM510.66,581q46.35-39,70.09-66.6,91.1-106,64.41-203.06T530.21,156q-59.27-39.1-138-40T257.71,179.9q-30.75,35.78-54,83.57Q365.65,437.06,510.66,581Z"/><text class="cls-2" transform="matrix(1.13, -0.05, 0.06, 1, 424.25, 936.68)">B</text><path class="cls-1" d="M486.31,431.39l180.45-.47-139.38,317c-20.33,38.94-56.7,81.62-104.86,82.49l-62.73.16L324.44,947.71c65.44,11.68,129.35,10,191.5-7.18C661.1,878.68,712.47,804.1,760.5,697.87L902.37,379.19l-415.15,1.09Z"/><text class="cls-3" transform="translate(786.59 1043.85) scale(0.92 1)">Diseños</text></g></g></svg>